<?xml version="1.0" encoding="utf-8"?>
<!-- Generator: Adobe Illustrator 21.1.0, SVG Export Plug-In . SVG Version: 6.00 Build 0)  -->
<svg version="1.1" id="Layer_1" xmlns="http://www.w3.org/2000/svg" xmlns:xlink="http://www.w3.org/1999/xlink" x="0px" y="0px"
	 viewBox="0 0 176 176" style="enable-background:new 0 0 176 176;" xml:space="preserve">
<style type="text/css">
	.st0{fill:#FFFFFF;}
</style>
<path class="st0" d="M88.4,163.4c-41.8,0-75.9-34-75.9-75.9s34-75.9,75.9-75.9s75.9,34,75.9,75.9S130.2,163.4,88.4,163.4z
	 M88.4,14.7c-40.2,0-72.9,32.7-72.9,72.9s32.7,72.9,72.9,72.9s72.9-32.7,72.9-72.9C161.2,47.4,128.6,14.7,88.4,14.7z"/>
<g>
	<g>
		<g>
			<path class="st0" d="M132.1,81.9v44.5H74.4v-21.2h27.2V68.7h10.1v-1h-11.1v36.5H73.4v23.2h59.8v-46
				C132.8,81.8,132.4,81.9,132.1,81.9z"/>
		</g>
		<g>
			<path class="st0" d="M106.7,105.2h4.4V122h-4.4V105.2z"/>
			<path class="st0" d="M127.5,108.9h-5V122h-4.4v-13.1h-5v-3.8h14.5L127.5,108.9L127.5,108.9z"/>
		</g>
		<g>
			<path class="st0" d="M50.4,53.2c5.3,0,8.3,3.9,8.3,8.8s-3,8.8-8.3,8.8s-8.3-3.9-8.3-8.8C42.1,57.1,45.1,53.2,50.4,53.2z M50.4,67
				c2.8,0,3.9-2.5,3.9-5s-1.1-5-3.9-5s-3.9,2.5-3.9,5S47.6,67,50.4,67z"/>
			<path class="st0" d="M74.5,57.3h-5v13.1h-4.4V57.3h-5v-3.8h14.5L74.5,57.3L74.5,57.3z"/>
		</g>
		<g>
			<g>
				<path class="st0" d="M96.4,87.5h-8.7c-0.3-0.7-1-1.2-1.8-1.2s-1.5,0.5-1.8,1.2h-8.9c-0.2-0.5-0.6-0.8-1-1V81
					c0.7-0.3,1.2-1,1.2-1.8c0-1.1-0.9-1.9-1.9-1.9c-0.8,0-1.5,0.5-1.8,1.2h-8.3c-0.3-0.7-1-1.2-1.8-1.2s-1.5,0.5-1.8,1.2h-9.1
					c-0.3-0.7-1-1.2-1.8-1.2c-1.1,0-1.9,0.9-1.9,1.9s0.9,1.9,1.9,1.9c0.8,0,1.5-0.5,1.8-1.2H60c0.2,0.5,0.6,0.8,1,1v10.8
					c-0.7,0.3-1.2,1-1.2,1.8c0,1.1,0.9,1.9,1.9,1.9s1.9-0.9,1.9-1.9c0-0.8-0.5-1.5-1.2-1.8V81.1c0.5-0.2,0.8-0.6,1-1h8.3
					c0.2,0.5,0.6,0.8,1,1v5.5c-0.7,0.3-1.2,1-1.2,1.8c0,1.1,0.9,1.9,1.9,1.9c0.8,0,1.5-0.5,1.8-1.2h8.9c0.2,0.5,0.6,0.8,1,1v10.7
					h1.5V90.1c0.5-0.2,0.8-0.6,1-1h8.7L96.4,87.5L96.4,87.5z"/>
				<path class="st0" d="M86.2,60.8c0-1.1-0.9-1.9-1.9-1.9s-1.9,0.9-1.9,1.9c0,0.8,0.5,1.5,1.2,1.8v5.6c-0.7,0.3-1.2,1-1.2,1.8
					s0.5,1.5,1.2,1.8v6.5c-0.7,0.3-1.2,1-1.2,1.8c0,1.1,0.9,1.9,1.9,1.9c0.8,0,1.5-0.5,1.8-1.2h10.4v-1.5H86c-0.2-0.5-0.6-0.8-1-1
					v-6.5c0.7-0.3,1.2-1,1.2-1.8s-0.5-1.5-1.2-1.8v-5.6C85.7,62.3,86.2,61.6,86.2,60.8z"/>
			</g>
			<g>
				<g>
					<path class="st0" d="M85.2,104.7v1.8c-0.7,0.3-1.2,1-1.2,1.8s0.5,1.5,1.2,1.8v8.3c-0.7,0.3-1.2,1-1.2,1.8
						c0,1.1,0.9,1.9,1.9,1.9c1.1,0,1.9-0.9,1.9-1.9c0-0.8-0.5-1.5-1.2-1.8v-8.3c0.7-0.3,1.2-1,1.2-1.8s-0.5-1.5-1.2-1.8v-1.8H85.2z"
						/>
					<path class="st0" d="M122.4,86.4c-0.6,0.4-1.2,0.7-1.9,0.9c-0.1,0.1-0.1,0.2-0.1,0.2h-7.8c-0.2-0.5-0.6-0.8-1-1v-4.8
						c0.1-0.1,0.3-0.1,0.4-0.2c-0.1-0.5-0.1-1-0.1-1.5v-1.7c-0.3-0.2-0.6-0.3-1-0.3c-0.8,0-1.5,0.5-1.8,1.2h-7.9v1.5h7.9
						c0.2,0.5,0.6,0.8,1,1v4.8c-0.5,0.2-0.8,0.6-1,1h-7.9V89h7.9c0.3,0.7,1,1.2,1.8,1.2s1.5-0.5,1.8-1.2h7.8c0.3,0.7,1,1.2,1.8,1.2
						c1.1,0,1.9-0.9,1.9-1.9C124,87.3,123.3,86.6,122.4,86.4z"/>
				</g>
			</g>
		</g>
		<g>
			<path class="st0" d="M37.1,46.7v42c0.4-0.2,0.7-0.4,1-0.4l0,0V47.7h57.7v52.5H58.5v1h38.4V46.7H37.1z"/>
		</g>
	</g>
	<g>
		<path class="st0" d="M59.5,136c-0.3-0.5-0.8-5.5,0-7.8s3.7-7.5,1.3-13s-4.3-6-4.3-8.5s0-13.7,0-16.3c0-2.7-1.8-5.5-5-5.5
			s-5.3,3.2-5.3,6.2s0,9.5,0,9.5h-7.7V90.3c0,0-1.8,0.3-4,6.7c-2.2,6.3-3.2,10.8-3,12s7,17.2,7.5,18.2s0,8.8,0,8.8H59.5z"/>
	</g>
	<g>
		<path class="st0" d="M110.7,34.3c0.3,0.5,0.8,5.5,0,7.8s-3.7,7.5-1.3,13s4.3,6,4.3,8.5s0,13.7,0,16.3c0,2.7,1.8,5.5,5,5.5
			s5.3-3.2,5.3-6.2s0-9.5,0-9.5h7.7V80c0,0,1.8-0.3,4-6.7c2.2-6.3,3.2-10.8,3-12s-7-17.2-7.5-18.2s0-8.8,0-8.8
			S110.7,34.3,110.7,34.3z"/>
	</g>
</g>
</svg>
