<?xml version="1.0" encoding="utf-8"?>
<!-- Generator: Adobe Illustrator 21.1.0, SVG Export Plug-In . SVG Version: 6.00 Build 0)  -->
<svg version="1.1" id="Layer_1" xmlns="http://www.w3.org/2000/svg" xmlns:xlink="http://www.w3.org/1999/xlink" x="0px" y="0px"
	 viewBox="0 0 176 176" style="enable-background:new 0 0 176 176;" xml:space="preserve">
<style type="text/css">
	.st0{fill:#FFFFFF;}
</style>
<path class="st0" d="M87.9,163.4c-41.8,0-75.9-34-75.9-75.9s34-75.9,75.9-75.9c41.8,0,75.9,34,75.9,75.9S129.7,163.4,87.9,163.4z
	 M87.9,14.7C47.7,14.7,15,47.4,15,87.6s32.7,72.9,72.9,72.9s72.9-32.7,72.9-72.9S128.1,14.7,87.9,14.7z"/>
<g>
	<path class="st0" d="M32.4,100.4c1-1.9-0.5-6.4,0.7-8.4c1.2-1.9,3.6-4.7,3.9-5.6c0.2-0.8-0.7-2.4,2.3-3.8c3-1.3,5.6-2.5,8.7-2.9
		c3.2-0.4,5-1.9,3.4-4.9c-1.6-2.9-1.9-5.3-3.2-6.4c-1.2-1.1-2.1-1.1-3.4,0c-1.3,1.1-2.3,2-2.8-0.2c-0.1-0.6-0.3-1.4-0.6-2.1
		c-6.8,8.5-10.8,19.3-10.8,31.1c0,1.5,0.1,3,0.2,4.4C31.6,101.3,32.2,100.9,32.4,100.4z"/>
	<path class="st0" d="M49.8,61.1c1.1,1.6,1.5,0.7,2.3,2.4c0.8,1.6,1.4,3.1,2.8,0.8c1.5-2.3,5.2-6.4,5.8-8.3c0.4-1.2,0.1-3-0.9-4.2
		c-3.6,1.6-6.9,3.7-10,6.1C49.5,59.2,49.3,60.4,49.8,61.1z"/>
	<path class="st0" d="M129.6,101.8c-1.4,0.7-2.8,1.8-3.6,2.7c-1.3,1.6-0.5,5.1-1.5,6.7s-1.3,2.5,0,4c0.4,0.5,1.2,1.3,2,2.1
		c2.1-4.7,3.4-9.8,3.9-15.2L129.6,101.8z"/>
	<path class="st0" d="M47.6,119.8c0.6-3.8,2.9-7.6,0.8-10.1c-2.1-2.4-5.7-4.5-6.9-5.6s-1.8-1.5-3.8-1.5c-1.3,0-4.4,0.1-6.7,0.5
		c1.8,14.8,10,27.7,21.9,35.6c-1.1-2.6-2.6-5.9-3.5-7.5C48,128.4,47,123.6,47.6,119.8z"/>
	<path class="st0" d="M63.1,68.5c-4.1,1.8-1,3.3,1.6,2.2C67.2,69.6,64.8,67.7,63.1,68.5z"/>
	<path class="st0" d="M129.5,101.8c-2.3,24.9-23.3,44.5-48.8,44.5c-27,0-49-22-49-49s22-49,49-49c5.3,0,10.5,0.9,15.3,2.5
		c0.5-0.6,0.9-1.1,1.4-1.6c-5.2-1.8-10.9-2.8-16.7-2.8c-28.1,0-51,22.9-51,51s22.9,51,51,51c26.4,0,48.1-20.1,50.7-45.8L129.5,101.8
		z"/>
	<path class="st0" d="M96.4,96.4c-3.6-1.5-6.6-3.6-6-5.9c0.3-1.3,1.1-3.7,2.8-5.5c-2.6-4.5-4-9.6-4-15.1c0-1.5,0.1-3,0.3-4.5
		c-1,0.1-1.9,0.2-2.8,0c-4.7-0.8-8-2.9-10.4-3.1c-2.4-0.2-4.7,2.7-6.2,5.8c-1.5,3.2-4.1,8.6-2.4,11s5,2.5,9.7,1
		c4.7-1.6,11.5,3.3,8.6,5.6s-5.6-2.2-9.7-2.6s-9.1,0.9-11.5,6.3c-2.4,5.3-2.7,10.4,3.5,12.4s8.5,2.5,10.8,5.9s-1.3,9.8,0.2,13.5
		c1.6,3.6,4.2,5.6,8.3,2.5s11.8-17.1,12.4-19.9C100.5,101,100,97.9,96.4,96.4z"/>
</g>
<g>
	<g>
		<g>
			<path class="st0" d="M112.1,46.1l-0.1-0.2c4.1-1.3,10.6-2.8,15.8-1.5l-20.9-6.9l0.9,7.1c-6.3,3-11.5,8.3-14.2,15.4
				c-5.3,14,1.2,29.6,14.6,35.7l1.1-2.8c-11.9-5.5-17.7-19.4-12.9-31.8C99.2,53.7,105.2,48.4,112.1,46.1z"/>
		</g>
		<g>
			<path class="st0" d="M133.6,45.4l-1.1,2.8c10.6,6.1,15.5,19.1,11,30.8c-2.2,5.7-6.3,10.2-11.2,13c-2.9,1.1-11.9,4.1-18.5,2.5
				l20.7,6.8l-0.9-6.6c5.6-3.1,10.3-8.1,12.7-14.6C151.4,66.8,145.8,52,133.6,45.4z"/>
		</g>
	</g>
	<g>
		<g>
			<path class="st0" d="M116.5,68.5l-8.2-3.4c1.1-2.7,3.4-4,5.7-4.7l1.6-0.5c1.6-0.5,2.7-1.1,3.4-2.7c0.5-1.3,0.5-2.9-1-3.5
				c-2.3-0.9-3.3,1.4-3.6,2.2l-1.8-0.8c1.2-2.8,3.1-4.2,6.1-2.9c3.4,1.4,2.9,4.3,2.3,5.6c-0.9,2.2-2.4,3-4.6,3.8l-2.8,0.9
				c-1.1,0.3-2,1-2.6,1.8l6.3,2.6L116.5,68.5z"/>
			<path class="st0" d="M129.4,56.6l1.7,0.7l-4,9.7l1.7,0.7l-0.6,1.5l-1.7-0.7L125,72l-1.7-0.7l1.5-3.5l-5.3-2.2l0.7-1.6L129.4,56.6
				z M121.7,64.7l3.7,1.5l2.8-6.8l0,0L121.7,64.7z"/>
		</g>
		<g>
			<path class="st0" d="M131.5,70.3l1.2,0.5l-6.4,6.8l-1.2-0.5L131.5,70.3z"/>
			<path class="st0" d="M131.7,73.7l3.6,1.5l-0.4,1c-0.3,0.1-1.1,0.6-1.7,1.2c-0.8,0.7-1.2,1.5-1.5,2.2l-1.3-0.5
				c0.3-0.6,0.8-1.4,1.7-2.1c0.7-0.6,1.4-1,1.6-1.1l0,0l-2.4-1L131.7,73.7z"/>
		</g>
		<g>
			<path class="st0" d="M109.1,75.8l0.5,0.2c0.8,0.3,1.4-0.1,1.7-0.9c0.3-0.7,0.3-1.4-0.5-1.7c-1-0.4-1.5,0.5-1.7,1l-1-0.4
				c0.5-1.3,1.5-1.9,2.9-1.4c1.6,0.7,1.5,1.9,1.1,2.8c-0.3,0.8-1,1.3-1.9,1.2l0,0c0.8,0.5,1.1,1.3,0.7,2.4c-0.6,1.4-1.7,2.1-3.2,1.5
				c-2.1-0.8-1.4-2.7-1.3-3v-0.1l1,0.4c-0.3,0.7-0.3,1.7,0.6,2c0.6,0.2,1.3,0.2,1.9-1.1c0.4-0.9,0.2-1.6-0.8-2l-0.5-0.2L109.1,75.8z
				"/>
			<path class="st0" d="M116.6,77.2c0.3-0.6,0.1-1.3-0.5-1.5c-1.3-0.5-2.1,1.3-2.3,1.7l-0.3,0.6l0,0c0.3-0.2,1-0.6,1.8-0.2
				c1.3,0.5,1.6,1.8,1,3.2c-0.6,1.5-1.8,2.3-3.2,1.7c-2.1-0.9-1.4-3-0.8-4.6c0.7-1.7,1.8-4.1,4-3.2c1.8,0.7,1.3,2.3,1.2,2.6
				L116.6,77.2z M113.4,82c1,0.4,1.6-0.5,1.9-1.3s0.5-1.9-0.5-2.3s-1.6,0.5-1.9,1.3S112.5,81.6,113.4,82z"/>
			<path class="st0" d="M119.9,76.5l3.4,1.4l-0.3,0.8l-2.7-1.1l-1.2,2.1l0,0c0.5-0.2,1.1-0.2,1.6,0c1.1,0.5,1.5,1.7,0.9,3.3
				c-0.6,1.4-1.7,2.4-3.3,1.7c-1.8-0.8-1.5-2.4-1.2-3l1,0.4c-0.2,0.4-0.4,1.5,0.6,1.9c1.1,0.4,1.8-0.7,2.1-1.5
				c0.3-0.8,0.4-1.9-0.6-2.3c-0.7-0.3-1.3,0.1-1.4,0.3l-0.8-0.4L119.9,76.5z"/>
		</g>
	</g>
	<g>
		<g>
			<path class="st0" d="M135.7,56.7l2.5-2l-0.2-0.3l-2.5,2C135.5,56.5,135.6,56.6,135.7,56.7z"/>
			<path class="st0" d="M129.3,51.5l1.4-2.8l-0.3-0.2l-1.4,2.8C129.1,51.4,129.2,51.5,129.3,51.5z"/>
			<path class="st0" d="M125.8,50.1l0.9-3.1l-0.3-0.1l-0.9,3.1C125.5,50,125.7,50.1,125.8,50.1z"/>
			<path class="st0" d="M110.4,51.7l-1.5-2.8l-0.3,0.2l1.5,2.8C110.2,51.8,110.3,51.7,110.4,51.7z"/>
			<path class="st0" d="M122.1,49.4l0.3-3.2h-0.3l-0.3,3.2C121.8,49.3,121.9,49.4,122.1,49.4z"/>
			<path class="st0" d="M113.9,50.2l-1-3l-0.3,0.1l1,3C113.7,50.3,113.8,50.2,113.9,50.2z"/>
			<path class="st0" d="M140.1,71.5l3.2,0.3v-0.3l-3.2-0.3C140.1,71.3,140.1,71.4,140.1,71.5z"/>
			<path class="st0" d="M139.3,75.2l3.1,0.9l0.1-0.3l-3.1-0.9C139.4,75,139.4,75.1,139.3,75.2z"/>
			<path class="st0" d="M137.9,78.7l2.8,1.4l0.2-0.3l-2.8-1.4C138,78.5,138,78.6,137.9,78.7z"/>
			<path class="st0" d="M139.2,63.4l3-1l-0.1-0.3l-3,1C139.2,63.1,139.2,63.2,139.2,63.4z"/>
			<path class="st0" d="M107.3,53.8l-2-2.5l-0.3,0.2l2,2.5C107.1,53.9,107.2,53.9,107.3,53.8z"/>
			<path class="st0" d="M137.8,59.8l2.8-1.5l-0.2-0.3l-2.8,1.5C137.6,59.6,137.7,59.7,137.8,59.8z"/>
			<path class="st0" d="M114.2,88.8l-0.9,3.1l0.3,0.1l0.9-3.1C114.4,88.9,114.3,88.8,114.2,88.8z"/>
			<path class="st0" d="M117.9,89.5l-0.3,3.2h0.3l0.3-3.2C118.2,89.5,118.1,89.5,117.9,89.5z"/>
			<path class="st0" d="M126.1,88.7l1,3l0.3-0.1l-1-3C126.3,88.6,126.2,88.7,126.1,88.7z"/>
			<path class="st0" d="M133,84.9c-0.1,0.1-0.2,0.2-0.3,0.2l2,2.5l0.3-0.2L133,84.9z"/>
			<path class="st0" d="M129.6,87.2l1.5,2.8l0.3-0.2l-1.5-2.8C129.8,87.1,129.7,87.2,129.6,87.2z"/>
			<path class="st0" d="M110.7,87.4l-1.4,2.8l0.3,0.2l1.4-2.8C110.9,87.5,110.8,87.4,110.7,87.4z"/>
			<path class="st0" d="M100.7,63.7l-3.1-0.9l-0.1,0.3l3.1,0.9C100.6,63.9,100.6,63.8,100.7,63.7z"/>
			<path class="st0" d="M99.9,67.4l-3.2-0.3v0.3l3.2,0.3C99.9,67.6,99.9,67.5,99.9,67.4z"/>
			<path class="st0" d="M104.3,82.2l-2.5,2l0.2,0.3l2.5-2C104.5,82.4,104.4,82.3,104.3,82.2z"/>
			<path class="st0" d="M102.1,60.1l-2.8-1.4L99.1,59l2.8,1.4C102,60.4,102,60.2,102.1,60.1z"/>
			<path class="st0" d="M100.8,75.5l-3,1l0.1,0.3l3-1C100.8,75.8,100.8,75.6,100.8,75.5z"/>
			<path class="st0" d="M102.2,79l-2.8,1.5l0.2,0.3l2.8-1.5C102.3,79.2,102.3,79.1,102.2,79z"/>
		</g>
		<g>
			<path class="st0" d="M118.7,51.5l-0.5-5.3l-0.9,0.1l0.5,5.3C118.1,51.5,118.4,51.5,118.7,51.5z"/>
			<path class="st0" d="M131.4,55.5c0.1,0.1,0.2,0.2,0.4,0.3l3.4-4.2l-0.7-0.6l-3.4,4.2C131.2,55.3,131.3,55.4,131.4,55.5z"/>
			<path class="st0" d="M106,58c0.1-0.1,0.2-0.2,0.3-0.4l-4.2-3.4l-0.6,0.7l4.2,3.4C105.9,58.3,106,58.2,106,58z"/>
			<path class="st0" d="M138,68.1l5.3-0.5l-0.1-0.9l-5.3,0.5C137.9,67.5,137.9,67.8,138,68.1z"/>
			<path class="st0" d="M108.6,83.4c-0.1-0.1-0.2-0.2-0.4-0.3l-3.4,4.1l0.7,0.6l3.4-4.1C108.8,83.6,108.7,83.5,108.6,83.4z"/>
			<path class="st0" d="M134.2,80.5c-0.1,0.1-0.2,0.2-0.3,0.4c-0.1,0.1-0.2,0.2-0.3,0.4l4.2,3.4l0.6-0.7L134.2,80.5z"/>
			<path class="st0" d="M121.3,87.4l0.5,5.3l0.9-0.1l-0.5-5.3C121.9,87.4,121.6,87.4,121.3,87.4z"/>
			<path class="st0" d="M102,70.8l-5.3,0.5l0.1,0.9l5.3-0.5C102.1,71.4,102.1,71.1,102,70.8z"/>
		</g>
	</g>
</g>
</svg>
