<?xml version="1.0" encoding="utf-8"?>
<!-- Generator: Adobe Illustrator 21.1.0, SVG Export Plug-In . SVG Version: 6.00 Build 0)  -->
<svg version="1.1" id="Layer_1" xmlns="http://www.w3.org/2000/svg" xmlns:xlink="http://www.w3.org/1999/xlink" x="0px" y="0px"
	 viewBox="0 0 176 176" style="enable-background:new 0 0 176 176;" xml:space="preserve">
<style type="text/css">
	.st0{fill:#91999E;}
	.st1{fill:#E5E5EA;}
	.st2{fill:#00AAEA;}
	.st3{fill:#0084CC;}
	.st4{fill:#006AB4;}
	.st5{fill:#5D6468;}
	.st6{fill:#DFE5E8;stroke:#818587;stroke-width:0.5;stroke-miterlimit:10;}
	.st7{fill:#C6CED9;}
	.st8{fill:#AEB7C4;}
	.st9{fill:#B7C0C6;}
	.st10{fill:#9DA6AB;}
	.st11{fill:#CDCECF;}
	.st12{fill:#738286;}
	.st13{fill:none;stroke:#FFFFFF;stroke-width:2;stroke-linecap:round;stroke-miterlimit:10;}
	.st14{fill:none;stroke:#B9BABE;stroke-width:3.5;stroke-linecap:round;stroke-miterlimit:10;}
	.st15{enable-background:new    ;}
	.st16{fill:#FFFFFF;}
	.st17{fill:none;}
	.st18{font-family:'ArialMT';}
	.st19{font-size:12px;}
	.st20{fill:#0090D9;}
	.st21{font-family:'Arial-BoldMT';}
	.st22{font-size:14px;}
</style>
<path class="st0" d="M481.2,761.9v16.3h-43.3c-8.5,76.7-73.7,135.7-151.7,135.7s-143.2-59-151.7-135.7H92v-16.3h50
	c4.3,0,7.9,3.4,8.2,7.7c4.3,71.8,64.1,128,136,128s131.8-56.2,136-128c0.3-4.3,3.8-7.7,8.2-7.7H481.2z"/>
<path class="st1" d="M479.2,763.9v12.2H436c-7.5,76.6-72.2,135.7-149.9,135.7s-142.3-59.2-149.9-135.7H94v-12.2h48
	c3.2,0,5.9,2.5,6.1,5.8c4.4,72.9,65,130,138.1,130s133.7-57.1,138.1-130c0.2-3.2,2.9-5.8,6.1-5.8H479.2z"/>
<path class="st0" d="M481.2,761.2v-16.3h-43.3c-8.5-76.7-73.7-135.7-151.7-135.7s-143.2,59-151.7,135.7H92v16.3h50
	c4.3,0,7.9-3.4,8.2-7.7c4.3-71.8,64.1-128,136-128s131.8,56.2,136,128c0.3,4.3,3.8,7.7,8.2,7.7H481.2z"/>
<path class="st1" d="M479.2,759.2V747H436c-7.5-76.6-72.2-135.7-149.9-135.7S143.8,670.5,136.2,747H94v12.2h48
	c3.2,0,5.9-2.5,6.1-5.8c4.4-72.9,65-130,138.1-130s133.7,57.1,138.1,130c0.2,3.2,2.9,5.8,6.1,5.8H479.2z"/>
<circle class="st2" cx="286.3" cy="761.5" r="134.9"/>
<circle class="st3" cx="286.3" cy="795.9" r="100.6"/>
<circle class="st4" cx="286.3" cy="832.3" r="64.2"/>
<polygon class="st5" points="129.6,744.3 133.3,742.4 133.3,730.7 129.6,728.8 100,728.8 96.4,730.7 96.4,742.4 100,744.3 "/>
<polygon class="st6" points="129.6,737.3 133.3,735.4 133.3,729 129.6,727.1 100,727.1 96.4,729 96.4,735.4 100,737.3 "/>
<g>
	<path class="st7" d="M114.8,729.2c-3.9,0-7.3,0.7-9.1,1.8v10.1c1.9,1.1,5.3,1.8,9.1,1.8c3.9,0,7.3-0.7,9.1-1.8V731
		C122.1,729.9,118.7,729.2,114.8,729.2z"/>
</g>
<g>
	<path class="st8" d="M101,729.2c-2,0-3.7,0.7-4.7,1.8v10.1c0.9,1.1,2.7,1.8,4.7,1.8s3.7-0.7,4.7-1.8V731
		C104.7,729.9,103,729.2,101,729.2z"/>
</g>
<g>
	<path class="st9" d="M128.6,729.2c-2,0-3.7,0.7-4.7,1.8v10.1c0.9,1.1,2.7,1.8,4.7,1.8s3.7-0.7,4.7-1.8V731
		C132.3,729.9,130.6,729.2,128.6,729.2z"/>
</g>
<g>
	<polygon class="st10" points="106.6,794.3 106.6,808.5 108,811.1 121.8,811.1 123.2,808.5 123.2,794.3 	"/>
	<g>
		<g>
			<path class="st11" d="M105.6,796.5l18.5-2.8c0.2,0,0.4,0,0.6,0.1c-0.2-0.5-0.6-0.8-1.1-0.7l-17.9,2.6c-0.6,0.1-1,0.6-0.9,1.2
				c0,0.1,0,0.2,0.1,0.2C104.9,796.8,105.2,796.5,105.6,796.5z"/>
			<path class="st12" d="M105.7,797.8c0,0,0.1,0,0.2,0l17.9-2.6c0.6-0.1,1-0.6,0.9-1.2c0-0.1,0-0.1-0.1-0.2
				c-0.2-0.1-0.4-0.1-0.6-0.1l-18.5,2.8c-0.4,0.1-0.7,0.3-0.8,0.7C104.9,797.5,105.3,797.8,105.7,797.8z"/>
		</g>
		<g>
			<path class="st11" d="M105.6,799.1l18.5-2.8c0.2,0,0.4,0,0.6,0.1c-0.2-0.5-0.6-0.8-1.1-0.7l-17.9,2.6c-0.6,0.1-1,0.6-0.9,1.2
				c0,0.1,0,0.2,0.1,0.2C104.9,799.4,105.2,799.2,105.6,799.1z"/>
			<path class="st12" d="M105.7,800.4c0,0,0.1,0,0.2,0l17.9-2.6c0.6-0.1,1-0.6,0.9-1.2c0-0.1,0-0.1-0.1-0.2
				c-0.2-0.1-0.4-0.1-0.6-0.1l-18.5,2.8c-0.4,0.1-0.7,0.3-0.8,0.7C104.9,800.2,105.3,800.4,105.7,800.4z"/>
		</g>
		<g>
			<path class="st11" d="M105.6,801.8l18.5-2.8c0.2,0,0.4,0,0.6,0.1c-0.2-0.5-0.6-0.8-1.1-0.7l-17.9,2.6c-0.6,0.1-1,0.6-0.9,1.2
				c0,0.1,0,0.2,0.1,0.2C104.9,802.1,105.2,801.8,105.6,801.8z"/>
			<path class="st12" d="M105.7,803.1c0,0,0.1,0,0.2,0l17.9-2.6c0.6-0.1,1-0.6,0.9-1.2c0-0.1,0-0.1-0.1-0.2
				c-0.2-0.1-0.4-0.1-0.6-0.1l-18.5,2.8c-0.4,0.1-0.7,0.3-0.8,0.7C104.9,802.8,105.3,803.1,105.7,803.1z"/>
		</g>
		<g>
			<path class="st11" d="M105.6,804.4l18.5-2.8c0.2,0,0.4,0,0.6,0.1c-0.2-0.5-0.6-0.8-1.1-0.7l-17.9,2.6c-0.6,0.1-1,0.6-0.9,1.2
				c0,0.1,0,0.2,0.1,0.2C104.9,804.7,105.2,804.5,105.6,804.4z"/>
			<path class="st12" d="M105.7,805.7c0,0,0.1,0,0.2,0l17.9-2.6c0.6-0.1,1-0.6,0.9-1.2c0-0.1,0-0.1-0.1-0.2
				c-0.2-0.1-0.4-0.1-0.6-0.1l-18.5,2.8c-0.4,0.1-0.7,0.3-0.8,0.7C104.9,805.5,105.3,805.7,105.7,805.7z"/>
		</g>
		<g>
			<path class="st11" d="M105.6,807.1l18.5-2.8c0.2,0,0.4,0,0.6,0.1c-0.2-0.5-0.6-0.8-1.1-0.7l-17.9,2.6c-0.6,0.1-1,0.6-0.9,1.2
				c0,0.1,0,0.2,0.1,0.2C104.9,807.4,105.2,807.1,105.6,807.1z"/>
			<path class="st12" d="M105.7,808.4c0,0,0.1,0,0.2,0l17.9-2.6c0.6-0.1,1-0.6,0.9-1.2c0-0.1,0-0.1-0.1-0.2
				c-0.2-0.1-0.4-0.1-0.6-0.1l-18.5,2.8c-0.4,0.1-0.7,0.3-0.8,0.7C104.9,808.1,105.3,808.4,105.7,808.4z"/>
		</g>
		<g>
			<path class="st11" d="M116.2,808.2l7.9-1.3c0.2,0,0.4,0,0.6,0.1c-0.2-0.5-0.6-0.8-1.1-0.7l-7.3,1.1c-0.6,0.1-1,0.6-0.9,1.2
				c0,0.1,0,0.2,0.1,0.2C115.5,808.5,115.8,808.3,116.2,808.2z"/>
			<path class="st12" d="M116.3,809.5c0.1,0,0.1,0,0.2,0l7.3-1.1c0.6-0.1,1-0.6,0.9-1.2c0-0.1,0-0.1-0.1-0.2
				c-0.2-0.1-0.4-0.1-0.6-0.1l-7.9,1.3c-0.4,0.1-0.7,0.3-0.8,0.7C115.5,809.3,115.9,809.5,116.3,809.5z"/>
		</g>
	</g>
</g>
<polygon class="st5" points="129.6,794.4 133.3,792.4 133.3,780.4 129.6,778.6 100,778.6 96.4,780.4 96.4,792.4 100,794.4 "/>
<g>
	<path class="st7" d="M114.8,780.1c-3.9,0-7.3,0.7-9.1,1.8V792c1.9,1.1,5.3,1.8,9.1,1.8c3.9,0,7.3-0.7,9.1-1.8v-10.1
		C122.1,780.8,118.7,780.1,114.8,780.1z"/>
</g>
<g>
	<path class="st8" d="M101,780.1c-2,0-3.7,0.7-4.7,1.8V792c0.9,1.1,2.7,1.8,4.7,1.8s3.7-0.7,4.7-1.8v-10.1
		C104.7,780.8,103,780.1,101,780.1z"/>
</g>
<g>
	<path class="st9" d="M128.6,780.1c-2,0-3.7,0.7-4.7,1.8V792c0.9,1.1,2.7,1.8,4.7,1.8s3.7-0.7,4.7-1.8v-10.1
		C132.3,780.8,130.6,780.1,128.6,780.1z"/>
</g>
<polygon class="st5" points="473.1,744.3 476.8,742.4 476.8,730.7 473.1,728.8 443.6,728.8 439.9,730.7 439.9,742.4 443.6,744.3 "/>
<polygon class="st6" points="473.1,737.3 476.8,735.4 476.8,729 473.1,727.1 443.6,727.1 439.9,729 439.9,735.4 443.6,737.3 "/>
<g>
	<path class="st7" d="M458.4,729.2c-3.9,0-7.3,0.7-9.1,1.8v10.1c1.9,1.1,5.3,1.8,9.1,1.8c3.9,0,7.3-0.7,9.1-1.8V731
		C465.7,729.9,462.3,729.2,458.4,729.2z"/>
</g>
<g>
	<path class="st8" d="M444.6,729.2c-2,0-3.7,0.7-4.7,1.8v10.1c0.9,1.1,2.7,1.8,4.7,1.8s3.7-0.7,4.7-1.8V731
		C448.3,729.9,446.6,729.2,444.6,729.2z"/>
</g>
<g>
	<path class="st9" d="M472.2,729.2c-2,0-3.7,0.7-4.7,1.8v10.1c0.9,1.1,2.7,1.8,4.7,1.8s3.7-0.7,4.7-1.8V731
		C475.9,729.9,474.1,729.2,472.2,729.2z"/>
</g>
<g>
	<polygon class="st10" points="450.2,794.3 450.2,808.5 451.5,811.1 465.4,811.1 466.7,808.5 466.7,794.3 	"/>
	<g>
		<g>
			<path class="st11" d="M449.1,796.5l18.5-2.8c0.2,0,0.4,0,0.6,0.1c-0.2-0.5-0.6-0.8-1.1-0.7l-17.9,2.6c-0.6,0.1-1,0.6-0.9,1.2
				c0,0.1,0,0.2,0.1,0.2C448.4,796.8,448.7,796.5,449.1,796.5z"/>
			<path class="st12" d="M449.3,797.8c0.1,0,0.1,0,0.2,0l17.9-2.6c0.6-0.1,1-0.6,0.9-1.2c0-0.1,0-0.1-0.1-0.2
				c-0.2-0.1-0.4-0.1-0.6-0.1l-18.5,2.8c-0.4,0.1-0.7,0.3-0.8,0.7C448.5,797.5,448.8,797.8,449.3,797.8z"/>
		</g>
		<g>
			<path class="st11" d="M449.1,799.1l18.5-2.8c0.2,0,0.4,0,0.6,0.1c-0.2-0.5-0.6-0.8-1.1-0.7l-17.9,2.6c-0.6,0.1-1,0.6-0.9,1.2
				c0,0.1,0,0.2,0.1,0.2C448.4,799.4,448.7,799.2,449.1,799.1z"/>
			<path class="st12" d="M449.3,800.4c0.1,0,0.1,0,0.2,0l17.9-2.6c0.6-0.1,1-0.6,0.9-1.2c0-0.1,0-0.1-0.1-0.2
				c-0.2-0.1-0.4-0.1-0.6-0.1l-18.5,2.8c-0.4,0.1-0.7,0.3-0.8,0.7C448.5,800.2,448.8,800.4,449.3,800.4z"/>
		</g>
		<g>
			<path class="st11" d="M449.1,801.8l18.5-2.8c0.2,0,0.4,0,0.6,0.1c-0.2-0.5-0.6-0.8-1.1-0.7l-17.9,2.6c-0.6,0.1-1,0.6-0.9,1.2
				c0,0.1,0,0.2,0.1,0.2C448.4,802.1,448.7,801.8,449.1,801.8z"/>
			<path class="st12" d="M449.3,803.1c0.1,0,0.1,0,0.2,0l17.9-2.6c0.6-0.1,1-0.6,0.9-1.2c0-0.1,0-0.1-0.1-0.2
				c-0.2-0.1-0.4-0.1-0.6-0.1l-18.5,2.8c-0.4,0.1-0.7,0.3-0.8,0.7C448.5,802.8,448.8,803.1,449.3,803.1z"/>
		</g>
		<g>
			<path class="st11" d="M449.1,804.4l18.5-2.8c0.2,0,0.4,0,0.6,0.1c-0.2-0.5-0.6-0.8-1.1-0.7l-17.9,2.6c-0.6,0.1-1,0.6-0.9,1.2
				c0,0.1,0,0.2,0.1,0.2C448.4,804.7,448.7,804.5,449.1,804.4z"/>
			<path class="st12" d="M449.3,805.7c0.1,0,0.1,0,0.2,0l17.9-2.6c0.6-0.1,1-0.6,0.9-1.2c0-0.1,0-0.1-0.1-0.2
				c-0.2-0.1-0.4-0.1-0.6-0.1l-18.5,2.8c-0.4,0.1-0.7,0.3-0.8,0.7C448.5,805.5,448.8,805.7,449.3,805.7z"/>
		</g>
		<g>
			<path class="st11" d="M449.1,807.1l18.5-2.8c0.2,0,0.4,0,0.6,0.1c-0.2-0.5-0.6-0.8-1.1-0.7l-17.9,2.6c-0.6,0.1-1,0.6-0.9,1.2
				c0,0.1,0,0.2,0.1,0.2C448.4,807.4,448.7,807.1,449.1,807.1z"/>
			<path class="st12" d="M449.3,808.4c0.1,0,0.1,0,0.2,0l17.9-2.6c0.6-0.1,1-0.6,0.9-1.2c0-0.1,0-0.1-0.1-0.2
				c-0.2-0.1-0.4-0.1-0.6-0.1l-18.5,2.8c-0.4,0.1-0.7,0.3-0.8,0.7C448.5,808.1,448.8,808.4,449.3,808.4z"/>
		</g>
		<g>
			<path class="st11" d="M459.7,808.2l7.9-1.3c0.2,0,0.4,0,0.6,0.1c-0.2-0.5-0.6-0.8-1.1-0.7l-7.3,1.1c-0.6,0.1-1,0.6-0.9,1.2
				c0,0.1,0,0.2,0.1,0.2C459,808.5,459.3,808.3,459.7,808.2z"/>
			<path class="st12" d="M459.9,809.5c0,0,0.1,0,0.2,0l7.3-1.1c0.6-0.1,1-0.6,0.9-1.2c0-0.1,0-0.1-0.1-0.2c-0.2-0.1-0.4-0.1-0.6-0.1
				l-7.9,1.3c-0.4,0.1-0.7,0.3-0.8,0.7C459.1,809.3,459.4,809.5,459.9,809.5z"/>
		</g>
	</g>
</g>
<polygon class="st5" points="473.1,794.4 476.8,792.4 476.8,780.4 473.1,778.6 443.6,778.6 439.9,780.4 439.9,792.4 443.6,794.4 "/>
<g>
	<path class="st7" d="M458.4,780.1c-3.9,0-7.3,0.7-9.1,1.8V792c1.9,1.1,5.3,1.8,9.1,1.8c3.9,0,7.3-0.7,9.1-1.8v-10.1
		C465.7,780.8,462.3,780.1,458.4,780.1z"/>
</g>
<g>
	<path class="st8" d="M444.6,780.1c-2,0-3.7,0.7-4.7,1.8V792c0.9,1.1,2.7,1.8,4.7,1.8s3.7-0.7,4.7-1.8v-10.1
		C448.3,780.8,446.6,780.1,444.6,780.1z"/>
</g>
<g>
	<path class="st9" d="M472.2,780.1c-2,0-3.7,0.7-4.7,1.8V792c0.9,1.1,2.7,1.8,4.7,1.8s3.7-0.7,4.7-1.8v-10.1
		C475.9,780.8,474.1,780.1,472.2,780.1z"/>
</g>
<path class="st13" d="M413.1,684c-26.3-41.9-72.9-69.7-126-69.7c-53.8,0-100.9,28.6-127,71.4"/>
<path class="st14" d="M413.2,839.9c-26.5,42.3-73.6,70.4-127.2,70.4c-54.3,0-101.9-28.9-128.3-72.1"/>
<text transform="matrix(1 0 0 1 214.1528 685.2876)" class="st16 st21" style="font-size:24px;">Management</text>
<text transform="matrix(1 0 0 1 240.1528 757.2876)" class="st16 st21" style="font-size:24px;">Network</text>
<text transform="matrix(1 0 0 1 242.1528 829.2876)" class="st16 st21" style="font-size:24px;">Devices</text>
<path class="st17" d="M372,624.8c-25.6-16.1-55.3-24.6-85.7-24.6c-30.1,0-59.4,8.3-84.9,24.1l-10.2-16.5c28.5-17.6,61.4-27,95.1-27
	c34.1,0,67.2,9.5,96,27.5L372,624.8z"/>
<g>
	<path id="SVGID_x5F_1_x5F__1_" class="st17" d="M170.2,650.7c31.9-31.5,76.5-49.8,124.8-46.7c41,2.6,77.5,20.1,104.6,46.9"/>
	<text transform="matrix(1 0 0 1 0 -2.929688e-05)" class="st18 st19"> </text>
	<text transform="matrix(1 0 0 1 190.5426 633.6159)" class="st18 st19"> </text>
	<text transform="matrix(1 0 0 1 193.244 631.6568)" class="st20 st21" style="font-size:36px;">I</text>
	<text transform="matrix(1 0 0 1 201.5176 625.9639)" class="st20 st21" style="font-size:36px;">E</text>
	<text transform="matrix(1 0 0 1 223.0281 615.1685)" class="st20 st21" style="font-size:36px;">C</text>
	<text transform="matrix(1 0 0 1 247.9358 607.7261)" class="st20 st21" style="font-size:36px;"> </text>
	<text transform="matrix(1 0 0 1 257.7227 605.5485)" class="st20 st21" style="font-size:36px;">6</text>
	<text transform="matrix(1 0 0 1 277.6635 603.4942)" class="st20 st21" style="font-size:36px;">2</text>
	<text transform="matrix(1 0 0 1 297.7053 603.8896)" class="st20 st21" style="font-size:36px;">4</text>
	<text transform="matrix(1 0 0 1 317.5563 606.6834)" class="st20 st21" style="font-size:36px;">4</text>
	<text transform="matrix(1 0 0 1 336.9169 611.884)" class="st20 st21" style="font-size:36px;">3</text>
	<text transform="matrix(1 0 0 1 355.3796 619.6322)" class="st20 st21" style="font-size:36px;"> </text>
	<text transform="matrix(1 0 0 1 364.2278 624.2955)" class="st18 st19"> </text>
	<text transform="matrix(1 0 0 1 0 -2.929688e-05)" class="st18 st19"> </text>
</g>
<line class="st13" x1="96" y1="748.6" x2="135.2" y2="748.6"/>
<path class="st13" d="M96,765.6h47c0,0,3.8,0.2,3.8,5"/>
<line class="st13" x1="477.1" y1="748.6" x2="436.8" y2="748.6"/>
<path class="st13" d="M477.1,765.6H429c0,0-3.8,0.2-3.8,5"/>
<path class="st16" d="M87.6,163.4c-41.8,0-75.9-34-75.9-75.9s34-75.9,75.9-75.9s75.9,34,75.9,75.9S129.4,163.4,87.6,163.4z
	 M87.6,14.7c-40.2,0-72.9,32.7-72.9,72.9s32.7,72.9,72.9,72.9s72.9-32.7,72.9-72.9C160.4,47.4,127.7,14.7,87.6,14.7z"/>
<path class="st16" d="M152.4,92.7v4.1h-14.6c-2.5,25.9-24.4,45.8-50.6,45.8s-48.1-20-50.6-45.8H22.3v-4.1h16.2c1.1,0,2,0.9,2.1,1.9
	c1.5,24.6,22,43.9,46.6,43.9s45.2-19.3,46.6-43.9c0.1-1.1,1-1.9,2.1-1.9H152.4z"/>
<path class="st16" d="M152.4,91.1V87h-14.6c-2.5-25.9-24.4-45.8-50.6-45.8S39.1,61.1,36.6,87H22.3v4.1h16.2c1.1,0,2-0.9,2.1-1.9
	c1.5-24.6,22-43.9,46.6-43.9s45.2,19.3,46.6,43.9c0.1,1.1,1,1.9,2.1,1.9H152.4z"/>
<g>
	<g>
		<g>
			<path class="st16" d="M25.9,106l6.3-0.9c0.1,0,0.1,0,0.2,0c-0.1-0.2-0.2-0.3-0.4-0.2l-6.1,0.9c-0.2,0-0.3,0.2-0.3,0.4v0.1
				C25.6,106.1,25.7,106.1,25.9,106z"/>
			<path class="st16" d="M25.9,106.5C25.9,106.5,26,106.5,25.9,106.5l6.1-0.9c0.2,0,0.3-0.2,0.3-0.4v-0.1c-0.1,0-0.1,0-0.2,0
				l-6.3,0.9c-0.1,0-0.2,0.1-0.3,0.2C25.6,106.4,25.8,106.5,25.9,106.5z"/>
		</g>
		<g>
			<path class="st16" d="M25.9,107.2l6.3-0.9c0.1,0,0.1,0,0.2,0c-0.1-0.2-0.2-0.3-0.4-0.2l-6.1,0.9c-0.2,0-0.3,0.2-0.3,0.4v0.1
				C25.6,107.3,25.7,107.2,25.9,107.2z"/>
			<path class="st16" d="M25.9,107.6C25.9,107.6,26,107.6,25.9,107.6l6.1-0.8c0.2,0,0.3-0.2,0.3-0.4v-0.1c-0.1,0-0.1,0-0.2,0
				l-6.3,0.9c-0.1,0-0.2,0.1-0.3,0.2C25.6,107.5,25.8,107.6,25.9,107.6z"/>
		</g>
		<g>
			<path class="st16" d="M25.9,108.3l6.3-0.9c0.1,0,0.1,0,0.2,0c-0.1-0.2-0.2-0.3-0.4-0.2l-6.1,0.9c-0.2,0-0.3,0.2-0.3,0.4v0.1
				C25.6,108.5,25.7,108.4,25.9,108.3z"/>
			<path class="st16" d="M25.9,108.8C25.9,108.8,26,108.8,25.9,108.8l6.1-0.9c0.2,0,0.3-0.2,0.3-0.4v-0.1c-0.1,0-0.1,0-0.2,0
				l-6.3,0.9c-0.1,0-0.2,0.1-0.3,0.2C25.6,108.7,25.8,108.8,25.9,108.8z"/>
		</g>
		<g>
			<path class="st16" d="M29.4,109.2l2.7-0.4c0.1,0,0.1,0,0.2,0c-0.1-0.2-0.2-0.3-0.4-0.2l-2.5,0.4c-0.2,0-0.3,0.2-0.3,0.4v0.1
				C29.2,109.4,29.3,109.3,29.4,109.2z"/>
			<path class="st16" d="M29.5,109.7L29.5,109.7l2.5-0.4c0.2,0,0.3-0.2,0.3-0.4v-0.1c-0.1,0-0.1,0-0.2,0l-2.7,0.4
				c-0.1,0-0.2,0.1-0.3,0.2C29.2,109.6,29.4,109.7,29.5,109.7z"/>
		</g>
	</g>
	<path class="st16" d="M29.7,110.2c-0.4,0.1-0.7,0-0.9-0.3c-0.2-0.2-0.2-0.5-0.2-0.5l-2.3,0.3l0.3,0.7h4.7l0.3-0.5
		C31,110,29.9,110.2,29.7,110.2z"/>
</g>
<g>
	<path class="st16" d="M86.2,61.4c-0.3,0-0.5,0.1-0.7,0.3c-0.2,0.2-0.3,0.5-0.3,0.9s0.1,0.8,0.3,1c0.2,0.2,0.4,0.3,0.6,0.3
		c0.3,0,0.5-0.1,0.7-0.3c0.2-0.2,0.3-0.5,0.3-0.9s-0.1-0.8-0.3-1C86.6,61.5,86.4,61.4,86.2,61.4z"/>
	<path class="st16" d="M91,61.4c-0.2,0-0.4,0.1-0.6,0.3c-0.2,0.2-0.2,0.4-0.2,0.7h1.7c0-0.3-0.1-0.6-0.2-0.7
		C91.4,61.5,91.2,61.4,91,61.4z"/>
	<path class="st16" d="M71.5,63.2c-0.1,0.1-0.2,0.2-0.2,0.4c0,0.2,0.1,0.3,0.2,0.4c0.1,0.1,0.3,0.2,0.4,0.2c0.2,0,0.4-0.1,0.6-0.2
		c0.1-0.1,0.2-0.2,0.3-0.4c0-0.1,0-0.3,0-0.5v-0.2c-0.1,0-0.4,0.1-0.7,0.2C71.8,63.2,71.6,63.1,71.5,63.2z"/>
	<path class="st16" d="M80.9,63.2c-0.1,0.1-0.2,0.2-0.2,0.4c0,0.2,0.1,0.3,0.2,0.4c0.1,0.1,0.3,0.2,0.4,0.2c0.2,0,0.4-0.1,0.6-0.2
		c0.1-0.1,0.2-0.2,0.3-0.4c0-0.1,0-0.3,0-0.5v-0.2c-0.1,0-0.4,0.1-0.7,0.2C81.2,63.2,81,63.1,80.9,63.2z"/>
	<path class="st16" d="M102.6,61.4c-0.2,0-0.4,0.1-0.6,0.3c-0.2,0.2-0.2,0.4-0.2,0.7h1.7c0-0.3-0.1-0.6-0.2-0.7
		S102.8,61.4,102.6,61.4z"/>
	<path class="st16" d="M87.2,47.5c-24.5,0-44.4,19.9-44.4,44.4s19.9,44.4,44.4,44.4c-18.3,0-33.1-14.8-33.1-33.1
		c0-18.3,14.8-33.1,33.1-33.1s33.1,14.8,33.1,33.1s-14.8,33.1-33.1,33.1c24.5,0,44.4-19.9,44.4-44.4S111.7,47.5,87.2,47.5z
		 M69.3,64.8h-1.1v-4.6l-1.1,4.6h-1.1L65,60.2v4.6h-1.1V59h1.8l1.1,4l1-4h1.8v5.8H69.3z M73,64.8c0-0.1-0.1-0.2-0.1-0.3s0-0.1,0-0.1
		c-0.2,0.2-0.4,0.3-0.6,0.4c-0.2,0.1-0.4,0.1-0.7,0.1c-0.4,0-0.8-0.1-1-0.4c-0.2-0.2-0.4-0.5-0.4-0.9c0-0.2,0.1-0.4,0.2-0.6
		s0.3-0.3,0.5-0.4c0.2-0.1,0.5-0.2,0.9-0.3c0.5-0.1,0.9-0.2,1.1-0.3v-0.1c0-0.2-0.1-0.4-0.2-0.5c-0.1-0.1-0.3-0.1-0.6-0.1
		c-0.2,0-0.4,0-0.5,0.1c-0.1,0.1-0.2,0.2-0.3,0.4l-1-0.2c0.1-0.4,0.3-0.7,0.6-0.9c0.3-0.2,0.7-0.3,1.2-0.3c0.5,0,0.9,0.1,1.1,0.2
		c0.2,0.1,0.4,0.3,0.5,0.4c0.1,0.2,0.1,0.5,0.1,1v1.3c0,0.4,0,0.6,0.1,0.8c0,0.2,0.1,0.4,0.2,0.6L73,64.8L73,64.8z M78.8,64.8h-1.1
		v-2.1c0-0.5,0-0.7-0.1-0.9c-0.1-0.2-0.1-0.2-0.2-0.3c-0.1-0.1-0.2-0.1-0.4-0.1s-0.4,0.1-0.5,0.2c-0.2,0.1-0.3,0.2-0.3,0.4
		c-0.1,0.2-0.1,0.5-0.1,1v1.9H75v-4.2h1v0.5c0.4-0.5,0.8-0.7,1.4-0.7c0.2,0,0.5,0,0.7,0.1s0.4,0.2,0.5,0.3s0.2,0.3,0.2,0.5
		c0,0.2,0.1,0.4,0.1,0.7L78.8,64.8L78.8,64.8z M82.4,64.8c0-0.1-0.1-0.2-0.1-0.3s0-0.1,0-0.1c-0.2,0.2-0.4,0.3-0.6,0.4
		s-0.4,0.1-0.7,0.1c-0.4,0-0.8-0.1-1-0.4c-0.2-0.2-0.4-0.5-0.4-0.9c0-0.2,0.1-0.4,0.2-0.6c0.1-0.2,0.3-0.3,0.5-0.4
		c0.2-0.1,0.5-0.2,0.9-0.3c0.5-0.1,0.9-0.2,1.1-0.3v-0.1c0-0.2-0.1-0.4-0.2-0.5c-0.1-0.1-0.3-0.1-0.6-0.1c-0.2,0-0.4,0-0.5,0.1
		c-0.1,0.1-0.2,0.2-0.3,0.4l-1-0.2c0.1-0.4,0.3-0.7,0.6-0.9c0.3-0.2,0.7-0.3,1.2-0.3c0.5,0,0.9,0.1,1.1,0.2c0.2,0.1,0.4,0.3,0.5,0.4
		c0.1,0.2,0.1,0.5,0.1,1v1.3c0,0.4,0,0.6,0.1,0.8c0,0.2,0.1,0.4,0.2,0.6L82.4,64.8L82.4,64.8z M88.2,64.4c0,0.5,0,0.9-0.1,1.1
		s-0.2,0.4-0.3,0.6c-0.1,0.1-0.3,0.2-0.6,0.3s-0.6,0.1-0.9,0.1c-0.7,0-1.2-0.1-1.5-0.4c-0.3-0.2-0.4-0.6-0.4-0.9v-0.1l1.3,0.2
		c0,0.1,0.1,0.2,0.1,0.3c0.1,0.1,0.3,0.1,0.5,0.1c0.3,0,0.5,0,0.7-0.1c0.1-0.1,0.2-0.2,0.2-0.3c0-0.1,0.1-0.3,0.1-0.5v-0.6
		c-0.3,0.5-0.8,0.7-1.3,0.7c-0.6,0-1-0.2-1.3-0.7c-0.3-0.4-0.4-0.8-0.4-1.4c0-0.7,0.2-1.2,0.5-1.6c0.3-0.4,0.8-0.6,1.3-0.6
		c0.5,0,0.9,0.2,1.3,0.7v-0.6h1v3.7H88.2z M90.4,63.8c0.2,0.2,0.4,0.3,0.6,0.3s0.3,0,0.4-0.1c0.1-0.1,0.2-0.2,0.3-0.5l1.1,0.2
		c-0.1,0.4-0.4,0.7-0.7,0.9c-0.3,0.2-0.7,0.3-1.2,0.3c-0.7,0-1.3-0.2-1.6-0.7c-0.3-0.4-0.4-0.9-0.4-1.4c0-0.7,0.2-1.2,0.5-1.6
		c0.4-0.4,0.8-0.6,1.4-0.6c0.6,0,1.1,0.2,1.5,0.6c0.4,0.4,0.5,1,0.5,1.9H90C90.1,63.4,90.2,63.6,90.4,63.8z M99.8,64.8h-1.1v-2.4
		c0-0.4,0-0.7-0.1-0.8c-0.1-0.2-0.3-0.2-0.5-0.2s-0.3,0-0.4,0.1c-0.1,0.1-0.2,0.2-0.3,0.4c-0.1,0.2-0.1,0.5-0.1,0.9v2h-1.1v-2.3
		c0-0.4,0-0.7-0.1-0.8c0-0.1-0.1-0.2-0.2-0.3c-0.1-0.1-0.2-0.1-0.3-0.1c-0.2,0-0.3,0-0.5,0.1c-0.2,0.1-0.2,0.2-0.3,0.4
		c-0.1,0.2-0.1,0.5-0.1,0.9v2h-1.1v-4.2h1v0.7c0.4-0.4,0.8-0.7,1.3-0.7c0.3,0,0.5,0.1,0.7,0.2s0.4,0.3,0.5,0.5
		c0.2-0.2,0.4-0.4,0.6-0.5c0.2-0.1,0.4-0.2,0.7-0.2s0.6,0.1,0.8,0.2c0.2,0.1,0.4,0.3,0.5,0.6c0.1,0.2,0.1,0.5,0.1,0.9V64.8z
		 M102,63.8c0.2,0.2,0.4,0.3,0.6,0.3s0.3,0,0.4-0.1c0.1-0.1,0.2-0.2,0.3-0.5l1.1,0.2c-0.1,0.4-0.4,0.7-0.7,0.9
		c-0.3,0.2-0.7,0.3-1.2,0.3c-0.7,0-1.3-0.2-1.6-0.7c-0.3-0.4-0.4-0.9-0.4-1.4c0-0.7,0.2-1.2,0.5-1.6c0.4-0.4,0.8-0.6,1.4-0.6
		c0.6,0,1.1,0.2,1.5,0.6c0.4,0.4,0.5,1,0.5,1.9h-2.8C101.7,63.4,101.8,63.6,102,63.8z M109.1,64.8H108v-2.1c0-0.5,0-0.7-0.1-0.9
		c-0.1-0.2-0.1-0.2-0.2-0.3c-0.1-0.1-0.2-0.1-0.4-0.1c-0.2,0-0.4,0.1-0.5,0.2c-0.2,0.1-0.3,0.2-0.3,0.4c-0.1,0.2-0.1,0.5-0.1,1v1.9
		h-1.1v-4.2h1v0.5c0.4-0.5,0.8-0.7,1.4-0.7c0.2,0,0.5,0,0.7,0.1c0.2,0.1,0.4,0.2,0.5,0.3s0.2,0.3,0.2,0.5c0,0.2,0.1,0.4,0.1,0.7
		L109.1,64.8L109.1,64.8z M111.4,64.9c-0.2,0-0.4,0-0.5-0.1c-0.2-0.1-0.3-0.2-0.4-0.3s-0.1-0.3-0.2-0.4c0-0.1,0-0.4,0-0.8v-1.8h-0.5
		v-0.9h0.5v-0.8l1.1-0.6v1.5h0.8v0.9h-0.8v1.6c0,0.3,0,0.5,0,0.6c0,0.1,0,0.1,0.1,0.1c0.1,0,0.1,0.1,0.2,0.1s0.3,0,0.4-0.1l0.1,0.9
		C112,64.9,111.7,64.9,111.4,64.9z"/>
</g>
<g>
	<path class="st16" d="M79.8,82.9c-0.2,0-0.4,0.1-0.6,0.3C79,83.4,79,83.6,79,83.9h1.7c0-0.3-0.1-0.6-0.2-0.7
		C80.3,83,80.1,82.9,79.8,82.9z"/>
	<path class="st16" d="M93.7,83c-0.3,0-0.5,0.1-0.7,0.3c-0.2,0.2-0.3,0.5-0.3,1c0,0.4,0.1,0.7,0.3,1c0.2,0.3,0.4,0.3,0.7,0.3
		s0.5-0.1,0.7-0.3c0.2-0.2,0.3-0.5,0.3-1c0-0.4-0.1-0.7-0.3-0.9C94.3,83.1,94.1,83,93.7,83z"/>
	<path class="st16" d="M87.2,72.1c-17.2,0-31.1,14-31.1,31.1c0,14.9,10.5,27.4,24.6,30.4c-8.6-2.8-14.8-10.9-14.8-20.4
		c0-11.8,9.6-21.5,21.5-21.5c11.8,0,21.5,9.6,21.5,21.5c0,9.5-6.2,17.5-14.8,20.4c14-3,24.6-15.5,24.6-30.4
		C118.4,86,104.4,72.1,87.2,72.1z M76.9,86.4h-1.2l-2.3-3.8v3.8h-1.1v-5.8h1.1l2.4,3.9v-3.9h1.1V86.4z M79.2,85.4
		c0.2,0.2,0.4,0.3,0.6,0.3c0.2,0,0.3,0,0.4-0.1c0.1-0.1,0.2-0.2,0.3-0.5l1.1,0.2c-0.1,0.4-0.4,0.7-0.7,0.9c-0.3,0.2-0.7,0.3-1.2,0.3
		c-0.7,0-1.3-0.2-1.6-0.7c-0.3-0.4-0.4-0.9-0.4-1.4c0-0.7,0.2-1.2,0.5-1.6c0.4-0.4,0.8-0.6,1.4-0.6s1.1,0.2,1.5,0.6
		c0.4,0.4,0.5,1,0.5,1.9h-2.8C79,84.9,79.1,85.2,79.2,85.4z M83.9,86.5c-0.2,0-0.4,0-0.5-0.1c-0.2-0.1-0.3-0.2-0.4-0.3
		s-0.1-0.3-0.2-0.4c0-0.1,0-0.4,0-0.8v-1.8h-0.5v-0.9h0.5v-0.8l1.1-0.6v1.5h0.8v0.9h-0.8v1.6c0,0.3,0,0.5,0,0.6c0,0.1,0,0.1,0.1,0.1
		s0.1,0.1,0.2,0.1c0.1,0,0.3,0,0.4-0.1l0.1,0.9C84.5,86.4,84.2,86.5,83.9,86.5z M89.8,86.4h-1.1L88,83.7l-0.7,2.7h-1.1l-1.3-4.2H86
		l0.8,2.8l0.7-2.8h1.1l0.7,2.8l0.8-2.8h1.1L89.8,86.4z M95.3,85.8c-0.4,0.4-0.9,0.6-1.6,0.6c-0.4,0-0.8-0.1-1.1-0.3
		c-0.3-0.2-0.5-0.3-0.7-0.7c-0.2-0.3-0.3-0.7-0.3-1.2c0-0.4,0.1-0.7,0.3-1.1c0.2-0.3,0.4-0.6,0.8-0.8c0.3-0.2,0.7-0.3,1.1-0.3
		c0.6,0,1.2,0.2,1.6,0.6c0.4,0.4,0.6,0.9,0.6,1.6C96,84.9,95.8,85.4,95.3,85.8z M99.2,83.3c-0.2-0.1-0.4-0.2-0.5-0.2
		c-0.2,0-0.3,0-0.4,0.1c-0.1,0.1-0.2,0.2-0.3,0.5c-0.1,0.3-0.1,0.7-0.1,1.4v1.3h-1.1v-4.2h1v0.6c0.2-0.3,0.3-0.5,0.5-0.6
		c0.1-0.1,0.3-0.1,0.5-0.1c0.3,0,0.5,0.1,0.7,0.2L99.2,83.3z M102.6,86.4l-1.1-1.9L101,85v1.3h-1.1v-5.8h1.1v3.1l1.3-1.5h1.4
		l-1.4,1.5l1.5,2.7h-1.2V86.4z"/>
</g>
<g>
	<path class="st16" d="M96.7,108.2c-0.2,0-0.4,0.1-0.6,0.3c-0.2,0.2-0.2,0.4-0.2,0.7h1.8c0-0.3-0.1-0.6-0.2-0.7
		C97.1,108.2,96.9,108.2,96.7,108.2z"/>
	<path class="st16" d="M80.4,108.2c-0.2,0-0.4,0.1-0.6,0.3s-0.2,0.4-0.2,0.7h1.8c0-0.3-0.1-0.6-0.2-0.7
		C80.8,108.2,80.6,108.2,80.4,108.2z"/>
	<path class="st16" d="M87.2,93.8c-10.6,0-19.3,8.7-19.3,19.3s8.7,19.3,19.3,19.3s19.3-8.7,19.3-19.3
		C106.5,102.5,97.8,93.8,87.2,93.8z M77.5,110c-0.1,0.4-0.4,0.8-0.6,1c-0.2,0.2-0.5,0.4-0.8,0.5c-0.3,0.1-0.6,0.1-1,0.1h-2.3v-6h2.2
		c0.5,0,0.9,0,1.1,0.1c0.3,0.1,0.6,0.3,0.9,0.5c0.2,0.3,0.4,0.6,0.6,0.9c0.1,0.4,0.2,0.8,0.2,1.4C77.6,109.2,77.6,109.6,77.5,110z
		 M79.8,110.7c0.2,0.2,0.4,0.3,0.6,0.3c0.2,0,0.3,0,0.4-0.1c0.1-0.1,0.2-0.2,0.3-0.5l1.1,0.2c-0.1,0.4-0.4,0.7-0.7,0.9
		c-0.3,0.2-0.7,0.3-1.2,0.3c-0.7,0-1.3-0.2-1.7-0.7c-0.3-0.4-0.4-0.9-0.4-1.4c0-0.7,0.2-1.2,0.5-1.7c0.4-0.4,0.8-0.6,1.4-0.6
		c0.6,0,1.1,0.2,1.5,0.6c0.4,0.4,0.5,1,0.5,2h-2.9C79.6,110.3,79.6,110.5,79.8,110.7z M85.5,111.7h-1l-1.8-4.3H84l0.8,2.2l0.2,0.7
		c0.1-0.2,0.1-0.3,0.1-0.4c0-0.1,0.1-0.2,0.1-0.4l0.8-2.2h1.1L85.5,111.7z M89.2,111.7H88v-4.3h1.1V111.7z M89.2,106.7H88v-1h1.1
		V106.7z M93.5,111.4c-0.3,0.3-0.8,0.4-1.3,0.4c-0.6,0-1.1-0.2-1.5-0.6c-0.4-0.4-0.5-0.9-0.5-1.7s0.2-1.2,0.6-1.7
		c0.4-0.4,0.9-0.6,1.5-0.6c0.5,0,0.9,0.1,1.2,0.3c0.3,0.2,0.5,0.6,0.7,1l-1.1,0.2c0-0.2-0.1-0.4-0.3-0.5c-0.2-0.1-0.3-0.2-0.5-0.2
		c-0.3,0-0.5,0.1-0.7,0.3c-0.2,0.2-0.2,0.5-0.2,1s0.1,0.9,0.3,1.1c0.2,0.2,0.4,0.3,0.7,0.3c0.2,0,0.4-0.1,0.5-0.2
		c0.1-0.1,0.2-0.3,0.3-0.6l1.1,0.2C94,110.8,93.8,111.2,93.5,111.4z M96.1,110.7c0.2,0.2,0.4,0.3,0.6,0.3c0.2,0,0.3,0,0.4-0.1
		c0.1-0.1,0.2-0.2,0.3-0.5l1.1,0.2c-0.1,0.4-0.4,0.7-0.7,0.9s-0.7,0.3-1.2,0.3c-0.7,0-1.3-0.2-1.7-0.7c-0.3-0.4-0.4-0.9-0.4-1.4
		c0-0.7,0.2-1.2,0.5-1.7c0.4-0.4,0.8-0.6,1.4-0.6c0.6,0,1.1,0.2,1.5,0.6c0.4,0.4,0.5,1,0.5,2h-2.9C95.8,110.3,95.9,110.5,96.1,110.7
		z M101.2,111.8c-0.6,0-1-0.1-1.4-0.3c-0.3-0.2-0.6-0.5-0.7-0.9l1.1-0.2c0,0.2,0.1,0.4,0.3,0.5c0.1,0.1,0.3,0.2,0.6,0.2
		s0.5-0.1,0.6-0.2c0.1-0.1,0.1-0.2,0.1-0.3c0-0.1,0-0.2-0.1-0.2c-0.1-0.1-0.2-0.1-0.4-0.1c-0.9-0.2-1.5-0.4-1.8-0.5
		c-0.3-0.2-0.5-0.5-0.5-0.9s0.1-0.7,0.4-0.9c0.3-0.2,0.7-0.4,1.3-0.4s1,0.1,1.3,0.3c0.3,0.2,0.5,0.5,0.6,0.8l-1,0.2
		c0-0.2-0.1-0.3-0.3-0.4c-0.1-0.1-0.3-0.1-0.5-0.1c-0.3,0-0.5,0-0.6,0.1c-0.1,0.1-0.1,0.1-0.1,0.2c0,0.1,0,0.1,0.1,0.2
		c0.1,0.1,0.4,0.2,1,0.3c0.6,0.1,1,0.3,1.2,0.5c0.2,0.2,0.3,0.5,0.3,0.8c0,0.4-0.2,0.7-0.5,1C102.4,111.7,102,111.8,101.2,111.8z"/>
	<path class="st16" d="M75.9,107.1c-0.1-0.1-0.3-0.2-0.5-0.3c-0.2,0-0.5-0.1-1-0.1h-0.5v3.9h0.9c0.3,0,0.6,0,0.7-0.1
		c0.2,0,0.3-0.1,0.5-0.2c0.1-0.1,0.2-0.3,0.3-0.6c0.1-0.3,0.1-0.6,0.1-1.1s0-0.8-0.1-1S76,107.2,75.9,107.1z"/>
</g>
<path class="st17" d="M116.2,45.7c-8.7-5.4-18.7-8.3-28.9-8.3s-20.1,2.8-28.7,8.1L55.1,40c9.6-6,20.7-9.1,32.1-9.1
	c11.5,0,22.7,3.2,32.4,9.3L116.2,45.7z"/>
<g>
	<path id="SVGID_x5F_2_x5F_" class="st17" d="M48,53.8C58.8,43.2,73.8,37,90.1,38c13.9,0.9,26.2,6.8,35.3,15.9"/>
	<text transform="matrix(1 0 0 1 0 0.3551)" class="st18 st19"> </text>
	<text transform="matrix(1 0 0 1 54.864 47.9836)" class="st18 st19"> </text>
	<text transform="matrix(1 0 0 1 55.6367 44.1295)" class="st16 st21 st22">I</text>
	<text transform="matrix(1 0 0 1 59.9428 40.0407)" class="st16 st21 st22">E</text>
	<text transform="matrix(1 0 0 1 69.5493 37.3445)" class="st16 st21 st22">C</text>
	<text transform="matrix(1 0 0 1 79.4476 38.2909)" class="st16 st21 st22"> </text>
	<text transform="matrix(1 0 0 1 83.3204 36.8151)" class="st16 st21 st22">6</text>
	<text transform="matrix(1 0 0 1 91.1183 36.815)" class="st16 st21 st22">2</text>
	<text transform="matrix(1 0 0 1 98.8288 39.07)" class="st16 st21 st22">4</text>
	<text transform="matrix(1 0 0 1 106.2974 41.3174)" class="st16 st21 st22">4</text>
	<text transform="matrix(1 0 0 1 113.3697 44.6058)" class="st16 st21 st22">3</text>
	<text transform="matrix(1 0 0 1 119.8325 48.9494)" class="st16 st21 st22"> </text>
	<text transform="matrix(1 0 0 1 122.8398 51.4201)" class="st18 st19"> </text>
	<text transform="matrix(1 0 0 1 0 0.3551)" class="st18 st19"> </text>
</g>
<path class="st16" d="M33.8,85.6h-9.5c-1,0-1.7-0.8-1.7-1.7v-2.4c0-1,0.8-1.7,1.7-1.7h9.5c1,0,1.7,0.8,1.7,1.7v2.4
	C35.5,84.8,34.7,85.6,33.8,85.6z"/>
<path class="st16" d="M33.8,104.1h-9.5c-1,0-1.7-0.8-1.7-1.7v-2.4c0-1,0.8-1.7,1.7-1.7h9.5c1,0,1.7,0.8,1.7,1.7v2.4
	C35.5,103.3,34.7,104.1,33.8,104.1z"/>
<g>
	<g>
		<g>
			<path class="st16" d="M142.4,106l6.3-0.9c0.1,0,0.1,0,0.2,0c-0.1-0.2-0.2-0.3-0.4-0.2l-6.1,0.9c-0.2,0-0.3,0.2-0.3,0.4v0.1
				C142.1,106.1,142.2,106.1,142.4,106z"/>
			<path class="st16" d="M142.4,106.5C142.4,106.5,142.5,106.5,142.4,106.5l6.1-0.9c0.2,0,0.3-0.2,0.3-0.4v-0.1c-0.1,0-0.1,0-0.2,0
				l-6.3,0.9c-0.1,0-0.2,0.1-0.3,0.2C142.1,106.4,142.3,106.5,142.4,106.5z"/>
		</g>
		<g>
			<path class="st16" d="M142.4,107.2l6.3-0.9c0.1,0,0.1,0,0.2,0c-0.1-0.2-0.2-0.3-0.4-0.2l-6.1,0.9c-0.2,0-0.3,0.2-0.3,0.4v0.1
				C142.1,107.3,142.2,107.2,142.4,107.2z"/>
			<path class="st16" d="M142.4,107.6C142.4,107.6,142.5,107.6,142.4,107.6l6.1-0.8c0.2,0,0.3-0.2,0.3-0.4v-0.1c-0.1,0-0.1,0-0.2,0
				l-6.3,0.9c-0.1,0-0.2,0.1-0.3,0.2C142.1,107.5,142.3,107.6,142.4,107.6z"/>
		</g>
		<g>
			<path class="st16" d="M142.4,108.3l6.3-0.9c0.1,0,0.1,0,0.2,0c-0.1-0.2-0.2-0.3-0.4-0.2l-6.1,0.9c-0.2,0-0.3,0.2-0.3,0.4v0.1
				C142.1,108.5,142.2,108.4,142.4,108.3z"/>
			<path class="st16" d="M142.4,108.8C142.4,108.8,142.5,108.8,142.4,108.8l6.1-0.9c0.2,0,0.3-0.2,0.3-0.4v-0.1c-0.1,0-0.1,0-0.2,0
				l-6.3,0.9c-0.1,0-0.2,0.1-0.3,0.2C142.1,108.7,142.3,108.8,142.4,108.8z"/>
		</g>
		<g>
			<path class="st16" d="M145.9,109.2l2.7-0.4c0.1,0,0.1,0,0.2,0c-0.1-0.2-0.2-0.3-0.4-0.2l-2.5,0.4c-0.2,0-0.3,0.2-0.3,0.4v0.1
				C145.7,109.4,145.8,109.3,145.9,109.2z"/>
			<path class="st16" d="M146,109.7L146,109.7l2.5-0.4c0.2,0,0.3-0.2,0.3-0.4v-0.1c-0.1,0-0.1,0-0.2,0l-2.7,0.4
				c-0.1,0-0.2,0.1-0.3,0.2C145.7,109.6,145.9,109.7,146,109.7z"/>
		</g>
	</g>
	<path class="st16" d="M146.2,110.2c-0.4,0.1-0.7,0-0.9-0.3c-0.2-0.2-0.2-0.5-0.2-0.5l-2.3,0.3l0.3,0.7h4.7l0.3-0.5
		C147.5,110,146.4,110.2,146.2,110.2z"/>
</g>
<path class="st16" d="M150.3,85.6h-9.5c-1,0-1.7-0.8-1.7-1.7v-2.4c0-1,0.8-1.7,1.7-1.7h9.5c1,0,1.7,0.8,1.7,1.7v2.4
	C152,84.8,151.2,85.6,150.3,85.6z"/>
<path class="st16" d="M150.3,104.1h-9.5c-1,0-1.7-0.8-1.7-1.7v-2.4c0-1,0.8-1.7,1.7-1.7h9.5c1,0,1.7,0.8,1.7,1.7v2.4
	C152,103.3,151.2,104.1,150.3,104.1z"/>
</svg>
