<svg xmlns="http://www.w3.org/2000/svg" style="width:0; height:0; visibility:hidden;">
    <symbol id="alert" viewBox="0 0 16 16">
      <g fill-rule="evenodd" clip-rule="evenodd"><path d="M7.111 10.667h1.777v1.777H7.111zM7.111 3.556h1.777v5.333H7.111z"/><path d="M8 14.223c-3.431 0-6.222-2.792-6.222-6.223S4.569 1.777 8 1.777 14.222 4.569 14.222 8 11.431 14.223 8 14.223zM8 0C3.591 0 0 3.591 0 8s3.591 8 8 8 8-3.591 8-8-3.591-8-8-8z"/></g>
    </symbol>
    <symbol id="arrow" viewBox="-400 278.3 40 40">
      <title>Group 23</title><path d="M-373.6 297.2l-7.5-7.5 1.4-1.4 9.2 9.2.7.7-.7.7-9.2 9.2-1.4-1.4 7.5-7.5h-16.3v-2h16.3z"/><path d="M-380 316.3c9.9 0 18-8.1 18-18s-8.1-18-18-18-18 8.1-18 18 8.1 18 18 18zm-20-18c0-11 9-20 20-20s20 9 20 20-9 20-20 20-20-9-20-20z"/>
    </symbol>
    <symbol id="icon-1" viewBox="0 0 176 176">
      <title>Slice 1</title><path d="M112.599 40H62.594a4.482 4.482 0 0 0-4.482 4.473v86.599c0 2.464 2.011 4.467 4.482 4.467h50.004a4.476 4.476 0 0 0 4.481-4.467V44.473a4.479 4.479 0 0 0-4.48-4.473zm1.074 92.139H61.521V113.4h52.151v18.739zm0-22.142H61.521V54.473h52.151v55.524zm0-58.927H61.521v-7.665h52.151v7.665z"/><path d="M87.597 125.479a2.684 2.684 0 0 0 2.685-2.676 2.683 2.683 0 0 0-2.685-2.677 2.685 2.685 0 0 0-2.686 2.677 2.685 2.685 0 0 0 2.686 2.676z"/>
    </symbol>
    <symbol id="icon-2" viewBox="0 0 176 176">
      <path d="M140.066 52.132H36.35c-2.947 0-5.35 2.415-5.35 5.388v60.125c0 2.974 2.402 5.395 5.35 5.395h103.717c2.947 0 5.35-2.421 5.35-5.395V57.52c-.001-2.974-2.403-5.388-5.351-5.388zm1.279 66.802H35.071V56.232h106.273v62.702z"/><path d="M48.438 69.594a2.048 2.048 0 0 0 2.036-2.048 2.049 2.049 0 0 0-2.036-2.055 2.05 2.05 0 0 0-2.039 2.055 2.047 2.047 0 0 0 2.039 2.048zM61.695 69.594a2.048 2.048 0 0 0 2.036-2.048 2.049 2.049 0 0 0-2.036-2.055 2.05 2.05 0 0 0-2.039 2.055c0 1.126.915 2.048 2.039 2.048zM74.95 69.594a2.048 2.048 0 0 0 2.039-2.048 2.05 2.05 0 0 0-2.039-2.055 2.049 2.049 0 0 0-2.036 2.055 2.048 2.048 0 0 0 2.036 2.048zM88.208 69.594a2.048 2.048 0 0 0 2.036-2.048 2.05 2.05 0 0 0-2.036-2.055 2.05 2.05 0 0 0-2.039 2.055c0 1.126.915 2.048 2.039 2.048zM101.467 69.594c1.12 0 2.035-.922 2.035-2.048a2.049 2.049 0 0 0-2.035-2.055 2.05 2.05 0 0 0-2.04 2.055c0 1.126.915 2.048 2.04 2.048zM114.721 69.594a2.047 2.047 0 0 0 2.039-2.048 2.049 2.049 0 0 0-2.039-2.055 2.048 2.048 0 0 0-2.035 2.055c0 1.126.914 2.048 2.035 2.048zM127.979 69.594a2.047 2.047 0 0 0 2.035-2.048c0-1.133-.914-2.055-2.035-2.055s-2.035.922-2.035 2.055a2.045 2.045 0 0 0 2.035 2.048zM48.438 82.957a2.046 2.046 0 0 0 2.036-2.052 2.049 2.049 0 0 0-2.036-2.055 2.05 2.05 0 0 0-2.039 2.055 2.046 2.046 0 0 0 2.039 2.052zM61.695 82.957a2.046 2.046 0 0 0 2.036-2.052 2.049 2.049 0 0 0-2.036-2.055 2.05 2.05 0 0 0-2.039 2.055c0 1.133.915 2.052 2.039 2.052zM74.95 82.957a2.046 2.046 0 0 0 2.039-2.052 2.05 2.05 0 0 0-2.039-2.055 2.049 2.049 0 0 0-2.036 2.055 2.047 2.047 0 0 0 2.036 2.052zM88.208 82.957a2.046 2.046 0 0 0 2.036-2.052 2.05 2.05 0 0 0-2.036-2.055 2.05 2.05 0 0 0-2.039 2.055c0 1.133.915 2.052 2.039 2.052zM101.467 82.957c1.12 0 2.035-.918 2.035-2.052a2.049 2.049 0 0 0-2.035-2.055 2.05 2.05 0 0 0-2.04 2.055c0 1.133.915 2.052 2.04 2.052zM114.721 82.957a2.046 2.046 0 0 0 2.039-2.052 2.049 2.049 0 0 0-2.039-2.055 2.048 2.048 0 0 0-2.035 2.055c0 1.133.914 2.052 2.035 2.052zM127.979 82.957a2.045 2.045 0 0 0 2.035-2.052c0-1.133-.914-2.055-2.035-2.055s-2.035.922-2.035 2.055a2.044 2.044 0 0 0 2.035 2.052zM48.438 96.318a2.048 2.048 0 0 0 2.036-2.048 2.05 2.05 0 0 0-2.036-2.056 2.05 2.05 0 0 0-2.039 2.056 2.047 2.047 0 0 0 2.039 2.048zM61.695 96.318a2.048 2.048 0 0 0 2.036-2.048 2.05 2.05 0 0 0-2.036-2.056 2.05 2.05 0 0 0-2.039 2.056c0 1.126.915 2.048 2.039 2.048zM74.95 96.318a2.048 2.048 0 0 0 2.039-2.048 2.05 2.05 0 0 0-2.039-2.056 2.05 2.05 0 0 0-2.036 2.056 2.048 2.048 0 0 0 2.036 2.048zM88.208 96.318a2.048 2.048 0 0 0 2.036-2.048 2.05 2.05 0 0 0-2.036-2.056 2.05 2.05 0 0 0-2.039 2.056c0 1.126.915 2.048 2.039 2.048zM101.467 96.318c1.12 0 2.035-.922 2.035-2.048 0-1.133-.915-2.056-2.035-2.056a2.05 2.05 0 0 0-2.04 2.056c0 1.126.915 2.048 2.04 2.048zM114.721 96.318a2.047 2.047 0 0 0 2.039-2.048 2.05 2.05 0 0 0-2.039-2.056c-1.121 0-2.035.923-2.035 2.056 0 1.126.914 2.048 2.035 2.048zM127.979 96.318a2.047 2.047 0 0 0 2.035-2.048c0-1.133-.914-2.056-2.035-2.056s-2.035.923-2.035 2.056a2.045 2.045 0 0 0 2.035 2.048zM48.438 109.682a2.046 2.046 0 0 0 2.036-2.052 2.047 2.047 0 0 0-2.036-2.056 2.048 2.048 0 0 0-2.039 2.056 2.046 2.046 0 0 0 2.039 2.052zM127.979 109.682a2.045 2.045 0 0 0 2.035-2.052c0-1.137-.914-2.056-2.035-2.056s-2.035.919-2.035 2.056a2.044 2.044 0 0 0 2.035 2.052zM61.695 109.682h53.025a2.046 2.046 0 0 0 2.039-2.052 2.048 2.048 0 0 0-2.039-2.056H61.695a2.048 2.048 0 0 0-2.039 2.056c0 1.133.915 2.052 2.039 2.052z"/>
    </symbol>
    <symbol id="icon-3" viewBox="0 0 176 176">
      <title>Slice 1 Copy 2</title><path d="M91.395 35H85.32c-16.099 0-29.198 13.133-29.198 29.271v46.555c0 16.135 13.099 29.266 29.198 29.266h6.075c16.103 0 29.2-13.131 29.2-29.266V64.271c0-16.138-13.098-29.271-29.2-29.271zm25.472 75.826c0 6.815-2.65 13.227-7.459 18.051-4.816 4.822-11.213 7.475-18.014 7.475H85.32c-6.803 0-13.198-2.652-18.01-7.475-4.811-4.824-7.46-11.235-7.46-18.051V64.271c0-6.818 2.649-13.227 7.46-18.05 4.81-4.824 11.207-7.476 18.01-7.476h6.075c6.804 0 13.197 2.652 18.014 7.473 4.809 4.827 7.459 11.234 7.459 18.053v46.555z"/><path d="M88.358 53.268c-1.027 0-1.865.84-1.865 1.87v18.265c0 1.029.838 1.866 1.865 1.866s1.866-.837 1.866-1.866V55.138c0-1.03-.839-1.87-1.866-1.87z"/>
    </symbol>
    <symbol id="moxa-logo" viewBox="0 0 174.34 25.83">
      <g fill-rule="evenodd" clip-rule="evenodd"><path d="M171.753 3.391c.551-.112.826-.452.826-.96 0-.679-.44-1.018-1.211-1.018h-1.211v3.674h.33v-1.64H171.423l.99 1.583v.057h.386l-.056-.17-.99-1.526zm-.55-.283h-.716V1.695h.881c.605 0 .881.227.881.735 0 .453-.33.678-1.046.678z"/><path d="M171.258.113c-1.706 0-3.026 1.412-3.026 3.108 0 1.752 1.375 3.108 3.026 3.108 1.706 0 3.082-1.413 3.082-3.108 0-1.696-1.376-3.108-3.082-3.108zm0 5.935c-1.485 0-2.751-1.244-2.751-2.826 0-1.526 1.211-2.826 2.751-2.826 1.485 0 2.752 1.243 2.752 2.826 0 1.526-1.211 2.826-2.752 2.826zM115.017 12.943a.267.267 0 0 1 0-.452l12.877-10.853c.165-.113.109-.226-.055-.226h-9.411c-.22 0-.495.112-.66.226l-7.704 6.613a.49.49 0 0 1-.551 0l-7.649-6.613c-.165-.113-.44-.226-.66-.226h-9.411c-.22 0-.22.112-.055.226l12.877 10.853a.267.267 0 0 1 0 .452L91.077 24.53c-.165.113-.275.226-.275.282H100.048c.22 0 .494-.112.66-.226l8.859-7.518a.49.49 0 0 1 .551 0l8.915 7.518c.165.113.44.226.66.226h9.245l-.275-.282-13.646-11.587z"/><path d="M154.969 1.695c-.11-.17-.386-.282-.605-.282h-7.265c-.22 0-.439.112-.605.282L128.938 24.53c-.109.17-.055.282.11.282h8.255a.673.673 0 0 0 .551-.282l12.602-17.013c.11-.17.33-.17.44 0l12.547 17.013c.11.17.386.282.55.282h8.476c.22 0 .274-.112.11-.282l-17.61-22.835zM70.936 0C59.104 0 49.474 5.765 49.474 12.887s9.63 12.943 21.462 12.943c11.832 0 21.462-5.821 21.462-12.943S82.768 0 70.936 0zm-.055 21.478c-7.814 0-14.143-3.504-14.143-8.591s6.329-8.591 14.143-8.591c7.869 0 14.198 3.504 14.198 8.591 0 5.143-6.329 8.591-14.198 8.591zM44.631 1.413h-9.466a.67.67 0 0 0-.55.282L22.728 19.104c-.11.169-.275.169-.44 0L10.346 1.752c-.11-.17-.385-.282-.55-.282H.331C.165 1.413 0 1.582 0 1.809v22.665c0 .227.165.396.385.396h7.76c.22 0 .385-.169.385-.396V9.326c0-.226.11-.226.22-.056l10.731 15.26c.11.17.385.282.55.282h5.008a.67.67 0 0 0 .55-.282L36.321 9.213c.11-.17.22-.113.22.057v15.147c0 .227.165.396.385.396h7.705c.22 0 .385-.169.385-.396V1.809a.381.381 0 0 0-.385-.396z"/></g>
    </symbol>
    <symbol id="product-1-copy" viewBox="0 0 114.417 97.781">
      <path d="M104.934 16.132H9.482c-2.712 0-4.924 2.223-4.924 4.959v55.333c0 2.739 2.21 4.967 4.924 4.967h95.452c2.712 0 4.925-2.228 4.925-4.967V21.091c-.002-2.737-2.212-4.959-4.925-4.959zm1.178 61.478H8.305V19.905h97.805V77.61h.002z"/><path d="M20.607 32.202a1.884 1.884 0 0 0 1.874-1.885 1.886 1.886 0 0 0-1.874-1.891 1.886 1.886 0 0 0-1.876 1.891 1.883 1.883 0 0 0 1.876 1.885zM32.808 32.202a1.884 1.884 0 0 0 1.874-1.885 1.886 1.886 0 0 0-1.874-1.891 1.885 1.885 0 0 0-1.876 1.891 1.883 1.883 0 0 0 1.876 1.885zM45.007 32.202a1.884 1.884 0 0 0 1.876-1.885 1.886 1.886 0 0 0-1.876-1.891 1.885 1.885 0 0 0-1.874 1.891 1.885 1.885 0 0 0 1.874 1.885zM57.208 32.202a1.883 1.883 0 0 0 1.874-1.885 1.887 1.887 0 0 0-1.874-1.891 1.886 1.886 0 0 0-1.876 1.891c0 1.037.842 1.885 1.876 1.885zM69.41 32.202a1.883 1.883 0 0 0 1.873-1.885 1.885 1.885 0 0 0-1.873-1.891 1.885 1.885 0 0 0-1.876 1.891c0 1.037.841 1.885 1.876 1.885zM81.609 32.202a1.883 1.883 0 0 0 1.875-1.885c0-1.042-.84-1.891-1.875-1.891a1.885 1.885 0 0 0-1.873 1.891c0 1.037.841 1.885 1.873 1.885zM93.81 32.202a1.884 1.884 0 0 0 1.873-1.885 1.886 1.886 0 0 0-1.873-1.891 1.885 1.885 0 0 0-1.873 1.891 1.882 1.882 0 0 0 1.873 1.885zM20.607 44.501a1.883 1.883 0 0 0 1.874-1.889 1.886 1.886 0 0 0-1.874-1.891 1.886 1.886 0 0 0-1.876 1.891 1.882 1.882 0 0 0 1.876 1.889zM32.808 44.501a1.883 1.883 0 0 0 1.874-1.889 1.886 1.886 0 0 0-1.874-1.891 1.885 1.885 0 0 0-1.876 1.891 1.883 1.883 0 0 0 1.876 1.889zM45.007 44.501a1.883 1.883 0 0 0 1.876-1.889 1.886 1.886 0 0 0-1.876-1.891 1.885 1.885 0 0 0-1.874 1.891 1.884 1.884 0 0 0 1.874 1.889zM57.208 44.501a1.882 1.882 0 0 0 1.874-1.889 1.887 1.887 0 0 0-1.874-1.891 1.886 1.886 0 0 0-1.876 1.891c0 1.043.842 1.889 1.876 1.889zM69.41 44.501a1.882 1.882 0 0 0 1.873-1.889 1.885 1.885 0 0 0-1.873-1.891 1.885 1.885 0 0 0-1.876 1.891c0 1.043.841 1.889 1.876 1.889zM81.609 44.501a1.882 1.882 0 0 0 1.875-1.889c0-1.042-.84-1.891-1.875-1.891a1.885 1.885 0 0 0-1.873 1.891c0 1.043.841 1.889 1.873 1.889zM93.81 44.501a1.883 1.883 0 0 0 1.873-1.889 1.886 1.886 0 0 0-1.873-1.891 1.885 1.885 0 0 0-1.873 1.891c0 1.043.84 1.889 1.873 1.889zM20.607 56.797a1.884 1.884 0 0 0 1.874-1.885 1.886 1.886 0 0 0-1.874-1.893 1.887 1.887 0 0 0-1.876 1.893 1.883 1.883 0 0 0 1.876 1.885zM32.808 56.797a1.884 1.884 0 0 0 1.874-1.885 1.886 1.886 0 0 0-1.874-1.893 1.886 1.886 0 0 0-1.876 1.893 1.883 1.883 0 0 0 1.876 1.885zM45.007 56.797a1.884 1.884 0 0 0 1.876-1.885 1.887 1.887 0 0 0-1.876-1.893 1.886 1.886 0 0 0-1.874 1.893 1.885 1.885 0 0 0 1.874 1.885zM57.208 56.797a1.883 1.883 0 0 0 1.874-1.885 1.887 1.887 0 0 0-1.874-1.893 1.887 1.887 0 0 0-1.876 1.893c0 1.037.842 1.885 1.876 1.885zM69.41 56.797a1.883 1.883 0 0 0 1.873-1.885 1.886 1.886 0 0 0-1.873-1.893 1.886 1.886 0 0 0-1.876 1.893c0 1.037.841 1.885 1.876 1.885zM81.609 56.797a1.883 1.883 0 0 0 1.875-1.885c0-1.044-.84-1.893-1.875-1.893a1.886 1.886 0 0 0-1.873 1.893c0 1.037.841 1.885 1.873 1.885zM93.81 56.797a1.884 1.884 0 0 0 1.873-1.885 1.886 1.886 0 0 0-1.873-1.893 1.886 1.886 0 0 0-1.873 1.893 1.882 1.882 0 0 0 1.873 1.885zM20.607 69.096a1.883 1.883 0 0 0 1.874-1.888 1.885 1.885 0 0 0-1.874-1.893 1.885 1.885 0 0 0-1.876 1.893 1.881 1.881 0 0 0 1.876 1.888zM93.81 69.096a1.883 1.883 0 0 0 1.873-1.888 1.884 1.884 0 0 0-1.873-1.893 1.884 1.884 0 0 0-1.873 1.893 1.88 1.88 0 0 0 1.873 1.888zM32.808 69.096h48.801a1.883 1.883 0 0 0 1.875-1.888 1.885 1.885 0 0 0-1.875-1.893H32.808a1.884 1.884 0 0 0-1.876 1.893 1.882 1.882 0 0 0 1.876 1.888z"/>
    </symbol>
    <symbol id="product-1" viewBox="0 0 114.417 97.781">
      <path d="M104.934 16.132H9.482c-2.712 0-4.924 2.223-4.924 4.959v55.333c0 2.739 2.21 4.967 4.924 4.967h95.452c2.712 0 4.925-2.228 4.925-4.967V21.091c-.002-2.737-2.212-4.959-4.925-4.959zm1.178 61.478H8.305V19.905h97.805V77.61h.002z"/><path d="M20.607 32.202a1.884 1.884 0 0 0 1.874-1.885 1.886 1.886 0 0 0-1.874-1.891 1.886 1.886 0 0 0-1.876 1.891 1.883 1.883 0 0 0 1.876 1.885zM32.808 32.202a1.884 1.884 0 0 0 1.874-1.885 1.886 1.886 0 0 0-1.874-1.891 1.885 1.885 0 0 0-1.876 1.891 1.883 1.883 0 0 0 1.876 1.885zM45.007 32.202a1.884 1.884 0 0 0 1.876-1.885 1.886 1.886 0 0 0-1.876-1.891 1.885 1.885 0 0 0-1.874 1.891 1.885 1.885 0 0 0 1.874 1.885zM57.208 32.202a1.883 1.883 0 0 0 1.874-1.885 1.887 1.887 0 0 0-1.874-1.891 1.886 1.886 0 0 0-1.876 1.891c0 1.037.842 1.885 1.876 1.885zM69.41 32.202a1.883 1.883 0 0 0 1.873-1.885 1.885 1.885 0 0 0-1.873-1.891 1.885 1.885 0 0 0-1.876 1.891c0 1.037.841 1.885 1.876 1.885zM81.609 32.202a1.883 1.883 0 0 0 1.875-1.885c0-1.042-.84-1.891-1.875-1.891a1.885 1.885 0 0 0-1.873 1.891c0 1.037.841 1.885 1.873 1.885zM93.81 32.202a1.884 1.884 0 0 0 1.873-1.885 1.886 1.886 0 0 0-1.873-1.891 1.885 1.885 0 0 0-1.873 1.891 1.882 1.882 0 0 0 1.873 1.885zM20.607 44.501a1.883 1.883 0 0 0 1.874-1.889 1.886 1.886 0 0 0-1.874-1.891 1.886 1.886 0 0 0-1.876 1.891 1.882 1.882 0 0 0 1.876 1.889zM32.808 44.501a1.883 1.883 0 0 0 1.874-1.889 1.886 1.886 0 0 0-1.874-1.891 1.885 1.885 0 0 0-1.876 1.891 1.883 1.883 0 0 0 1.876 1.889zM45.007 44.501a1.883 1.883 0 0 0 1.876-1.889 1.886 1.886 0 0 0-1.876-1.891 1.885 1.885 0 0 0-1.874 1.891 1.884 1.884 0 0 0 1.874 1.889zM57.208 44.501a1.882 1.882 0 0 0 1.874-1.889 1.887 1.887 0 0 0-1.874-1.891 1.886 1.886 0 0 0-1.876 1.891c0 1.043.842 1.889 1.876 1.889zM69.41 44.501a1.882 1.882 0 0 0 1.873-1.889 1.885 1.885 0 0 0-1.873-1.891 1.885 1.885 0 0 0-1.876 1.891c0 1.043.841 1.889 1.876 1.889zM81.609 44.501a1.882 1.882 0 0 0 1.875-1.889c0-1.042-.84-1.891-1.875-1.891a1.885 1.885 0 0 0-1.873 1.891c0 1.043.841 1.889 1.873 1.889zM93.81 44.501a1.883 1.883 0 0 0 1.873-1.889 1.886 1.886 0 0 0-1.873-1.891 1.885 1.885 0 0 0-1.873 1.891c0 1.043.84 1.889 1.873 1.889zM20.607 56.797a1.884 1.884 0 0 0 1.874-1.885 1.886 1.886 0 0 0-1.874-1.893 1.887 1.887 0 0 0-1.876 1.893 1.883 1.883 0 0 0 1.876 1.885zM32.808 56.797a1.884 1.884 0 0 0 1.874-1.885 1.886 1.886 0 0 0-1.874-1.893 1.886 1.886 0 0 0-1.876 1.893 1.883 1.883 0 0 0 1.876 1.885zM45.007 56.797a1.884 1.884 0 0 0 1.876-1.885 1.887 1.887 0 0 0-1.876-1.893 1.886 1.886 0 0 0-1.874 1.893 1.885 1.885 0 0 0 1.874 1.885zM57.208 56.797a1.883 1.883 0 0 0 1.874-1.885 1.887 1.887 0 0 0-1.874-1.893 1.887 1.887 0 0 0-1.876 1.893c0 1.037.842 1.885 1.876 1.885zM69.41 56.797a1.883 1.883 0 0 0 1.873-1.885 1.886 1.886 0 0 0-1.873-1.893 1.886 1.886 0 0 0-1.876 1.893c0 1.037.841 1.885 1.876 1.885zM81.609 56.797a1.883 1.883 0 0 0 1.875-1.885c0-1.044-.84-1.893-1.875-1.893a1.886 1.886 0 0 0-1.873 1.893c0 1.037.841 1.885 1.873 1.885zM93.81 56.797a1.884 1.884 0 0 0 1.873-1.885 1.886 1.886 0 0 0-1.873-1.893 1.886 1.886 0 0 0-1.873 1.893 1.882 1.882 0 0 0 1.873 1.885zM20.607 69.096a1.883 1.883 0 0 0 1.874-1.888 1.885 1.885 0 0 0-1.874-1.893 1.885 1.885 0 0 0-1.876 1.893 1.881 1.881 0 0 0 1.876 1.888zM93.81 69.096a1.883 1.883 0 0 0 1.873-1.888 1.884 1.884 0 0 0-1.873-1.893 1.884 1.884 0 0 0-1.873 1.893 1.88 1.88 0 0 0 1.873 1.888zM32.808 69.096h48.801a1.883 1.883 0 0 0 1.875-1.888 1.885 1.885 0 0 0-1.875-1.893H32.808a1.884 1.884 0 0 0-1.876 1.893 1.882 1.882 0 0 0 1.876 1.888z"/>
    </symbol>
    <symbol id="product-2" viewBox="0 0 114.417 97.781">
      <g fill-rule="evenodd" clip-rule="evenodd"><path d="M100.452 22.197c0-2.641-2.141-4.793-4.782-4.793H18.625c-2.638 0-4.783 2.152-4.783 4.793V74.5h86.609V22.197zm-3.637 48.656H17.481V21.052h79.334v49.801zM106.478 82.727H7.819c-1.005 0-1.82.82-1.82 1.824 0 1.01.815 1.826 1.82 1.826h98.659c1.006 0 1.82-.816 1.82-1.826a1.824 1.824 0 0 0-1.82-1.824z"/></g>
    </symbol>
    <symbol id="product-22" viewBox="0 0 114.417 97.781">
      <path d="M104.934 16.132H9.482c-2.712 0-4.924 2.223-4.924 4.959v55.333c0 2.739 2.21 4.967 4.924 4.967h95.452c2.712 0 4.925-2.228 4.925-4.967V21.091c-.002-2.737-2.212-4.959-4.925-4.959zm1.178 61.478H8.305V19.905h97.805V77.61h.002z"/><path d="M20.607 32.202a1.884 1.884 0 0 0 1.874-1.885 1.886 1.886 0 0 0-1.874-1.891 1.886 1.886 0 0 0-1.876 1.891 1.883 1.883 0 0 0 1.876 1.885zM32.808 32.202a1.884 1.884 0 0 0 1.874-1.885 1.886 1.886 0 0 0-1.874-1.891 1.885 1.885 0 0 0-1.876 1.891 1.883 1.883 0 0 0 1.876 1.885zM45.007 32.202a1.884 1.884 0 0 0 1.876-1.885 1.886 1.886 0 0 0-1.876-1.891 1.885 1.885 0 0 0-1.874 1.891 1.885 1.885 0 0 0 1.874 1.885zM57.208 32.202a1.883 1.883 0 0 0 1.874-1.885 1.887 1.887 0 0 0-1.874-1.891 1.886 1.886 0 0 0-1.876 1.891c0 1.037.842 1.885 1.876 1.885zM69.41 32.202a1.883 1.883 0 0 0 1.873-1.885 1.885 1.885 0 0 0-1.873-1.891 1.885 1.885 0 0 0-1.876 1.891c0 1.037.841 1.885 1.876 1.885zM81.609 32.202a1.883 1.883 0 0 0 1.875-1.885c0-1.042-.84-1.891-1.875-1.891a1.885 1.885 0 0 0-1.873 1.891c0 1.037.841 1.885 1.873 1.885zM93.81 32.202a1.884 1.884 0 0 0 1.873-1.885 1.886 1.886 0 0 0-1.873-1.891 1.885 1.885 0 0 0-1.873 1.891 1.882 1.882 0 0 0 1.873 1.885zM20.607 44.501a1.883 1.883 0 0 0 1.874-1.889 1.886 1.886 0 0 0-1.874-1.891 1.886 1.886 0 0 0-1.876 1.891 1.882 1.882 0 0 0 1.876 1.889zM32.808 44.501a1.883 1.883 0 0 0 1.874-1.889 1.886 1.886 0 0 0-1.874-1.891 1.885 1.885 0 0 0-1.876 1.891 1.883 1.883 0 0 0 1.876 1.889zM45.007 44.501a1.883 1.883 0 0 0 1.876-1.889 1.886 1.886 0 0 0-1.876-1.891 1.885 1.885 0 0 0-1.874 1.891 1.884 1.884 0 0 0 1.874 1.889zM57.208 44.501a1.882 1.882 0 0 0 1.874-1.889 1.887 1.887 0 0 0-1.874-1.891 1.886 1.886 0 0 0-1.876 1.891c0 1.043.842 1.889 1.876 1.889zM69.41 44.501a1.882 1.882 0 0 0 1.873-1.889 1.885 1.885 0 0 0-1.873-1.891 1.885 1.885 0 0 0-1.876 1.891c0 1.043.841 1.889 1.876 1.889zM81.609 44.501a1.882 1.882 0 0 0 1.875-1.889c0-1.042-.84-1.891-1.875-1.891a1.885 1.885 0 0 0-1.873 1.891c0 1.043.841 1.889 1.873 1.889zM93.81 44.501a1.883 1.883 0 0 0 1.873-1.889 1.886 1.886 0 0 0-1.873-1.891 1.885 1.885 0 0 0-1.873 1.891c0 1.043.84 1.889 1.873 1.889zM20.607 56.797a1.884 1.884 0 0 0 1.874-1.885 1.886 1.886 0 0 0-1.874-1.893 1.887 1.887 0 0 0-1.876 1.893 1.883 1.883 0 0 0 1.876 1.885zM32.808 56.797a1.884 1.884 0 0 0 1.874-1.885 1.886 1.886 0 0 0-1.874-1.893 1.886 1.886 0 0 0-1.876 1.893 1.883 1.883 0 0 0 1.876 1.885zM45.007 56.797a1.884 1.884 0 0 0 1.876-1.885 1.887 1.887 0 0 0-1.876-1.893 1.886 1.886 0 0 0-1.874 1.893 1.885 1.885 0 0 0 1.874 1.885zM57.208 56.797a1.883 1.883 0 0 0 1.874-1.885 1.887 1.887 0 0 0-1.874-1.893 1.887 1.887 0 0 0-1.876 1.893c0 1.037.842 1.885 1.876 1.885zM69.41 56.797a1.883 1.883 0 0 0 1.873-1.885 1.886 1.886 0 0 0-1.873-1.893 1.886 1.886 0 0 0-1.876 1.893c0 1.037.841 1.885 1.876 1.885zM81.609 56.797a1.883 1.883 0 0 0 1.875-1.885c0-1.044-.84-1.893-1.875-1.893a1.886 1.886 0 0 0-1.873 1.893c0 1.037.841 1.885 1.873 1.885zM93.81 56.797a1.884 1.884 0 0 0 1.873-1.885 1.886 1.886 0 0 0-1.873-1.893 1.886 1.886 0 0 0-1.873 1.893 1.882 1.882 0 0 0 1.873 1.885zM20.607 69.096a1.883 1.883 0 0 0 1.874-1.888 1.885 1.885 0 0 0-1.874-1.893 1.885 1.885 0 0 0-1.876 1.893 1.881 1.881 0 0 0 1.876 1.888zM93.81 69.096a1.883 1.883 0 0 0 1.873-1.888 1.884 1.884 0 0 0-1.873-1.893 1.884 1.884 0 0 0-1.873 1.893 1.88 1.88 0 0 0 1.873 1.888zM32.808 69.096h48.801a1.883 1.883 0 0 0 1.875-1.888 1.885 1.885 0 0 0-1.875-1.893H32.808a1.884 1.884 0 0 0-1.876 1.893 1.882 1.882 0 0 0 1.876 1.888z"/>
    </symbol>
    <symbol id="product-3" viewBox="0 0 114.417 97.781">
      <path fill-rule="evenodd" clip-rule="evenodd" d="M105.659 64.406h-8.214V38.361h8.214v26.045zm-11.856 8.906H10.64V29.455h83.163v43.857zm15.496-33.806a4.79 4.79 0 0 0-4.783-4.789h-7.07V30.6c0-2.643-2.148-4.795-4.786-4.795H11.783C9.148 25.805 7 27.956 7 30.6v41.567c0 2.641 2.148 4.792 4.783 4.792h80.876a4.796 4.796 0 0 0 4.786-4.792v-4.116h7.071a4.793 4.793 0 0 0 4.782-4.79V39.506h.001z"/>
    </symbol>
    <symbol id="product-4" viewBox="0 0 114.417 97.781">
      <g fill-rule="evenodd" clip-rule="evenodd" fill="#800000018000000180000001"><path d="M100.452 22.197c0-2.641-2.141-4.793-4.782-4.793H18.625c-2.638 0-4.783 2.152-4.783 4.793V74.5h86.609V22.197zm-3.637 48.656H17.481V21.052h79.334v49.801zM106.478 82.727H7.819c-1.005 0-1.82.82-1.82 1.824 0 1.01.815 1.826 1.82 1.826h98.659c1.006 0 1.82-.816 1.82-1.826a1.824 1.824 0 0 0-1.82-1.824z"/></g>
    </symbol>
    <symbol id="refresh" viewBox="405 178.5 50 50">
      <path d="M414.533 203.754c.164-8.629 7.165-15.467 15.794-15.467 4.233 0 8.139 1.629 11.233 4.561l2.277-2.277c-3.58-3.578-8.466-5.535-13.511-5.535-10.416 0-19.045 8.467-19.21 18.719h-5.207l6.673 9.932 7.328-9.932h-5.377v-.001zm39.557-.157l-6.673-9.932-7.328 9.932h5.372c-.164 8.63-7.165 15.466-15.794 15.466-4.233 0-8.14-1.628-11.233-4.56l-2.277 2.276c3.578 3.58 8.466 5.536 13.511 5.536 10.416 0 19.045-8.466 19.208-18.719h5.214v.001z"/>
    </symbol>
    <symbol id="s-facebook-fill" viewBox="-176 257.482 396.364 395.454">
      <title>facebook</title><path d="M22.182 257.482C-87.364 257.482-176 346.118-176 455.209s88.636 197.728 198.182 197.728c109.546 0 198.182-88.637 198.182-197.728 0-109.545-88.636-197.727-198.182-197.727zm50.455 197.727H39.909v116.818H-8.728V455.209H-31.91v-41.363h23.182v-26.818c0-19.091 9.091-49.091 49.091-49.091h35.909v40H49.909c-4.091 0-10.455 2.272-10.455 11.363v24.091h37.273l-4.09 41.818z"/>
    </symbol>
    <symbol id="s-facebook-outline" viewBox="204.091 8.182 391.818 391.818">
      <title>Group 16</title><path d="M400 8.182c-108.182 0-195.909 87.728-195.909 195.909S291.818 400 400 400s195.909-87.727 195.909-195.909C595.909 95.909 508.182 8.182 400 8.182zm0 377.727c-100.455 0-181.818-81.363-181.818-181.818 0-100.454 81.364-181.817 181.818-181.817 100.455 0 181.818 81.363 181.818 181.817 0 100-81.363 181.818-181.818 181.818z"/><path d="M370.455 150.909v28.637h-31.818v38.636h31.818v99.091h38.182v-99.091h31.818l5-38.636h-36.818V155c0-11.363 3.182-18.637 18.182-18.637h19.545v-34.545c-3.182-.455-15-1.363-28.636-1.363-27.728-.455-47.273 17.727-47.273 50.454z"/>
    </symbol>
    <symbol id="s-gplus-fill" viewBox="-172.818 256.118 396.364 395.455">
      <title>Group 36</title><path d="M25.364 256.118c-109.545 0-198.182 88.637-198.182 197.728s88.637 197.728 198.182 197.728 198.182-88.637 198.182-197.728-88.637-197.728-198.182-197.728zm-45.455 277.728c-44.091 0-80-35.909-80-80s35.909-80 80-80c21.818 0 39.545 7.727 53.636 20.909l-21.818 20.909c-5.909-5.909-16.364-12.273-31.818-12.273-27.273 0-49.545 22.728-49.545 50.455 0 27.727 22.272 50.454 49.545 50.454 31.818 0 43.636-22.728 45.455-34.545h-45.455v-27.273h75.455c.909 4.091 1.364 8.183 1.364 13.183 0 45.453-30.91 78.181-76.819 78.181zm171.364-68.637h-22.728v22.728h-22.727v-22.728H83.091v-22.727h22.728v-22.728h22.727v22.728h22.728v22.727z"/>
    </symbol>
    <symbol id="s-gplus-outline" viewBox="225.087 2.621 394.691 394.692">
      <title>Group 2</title><path d="M382.453 193.381v26.339h44.414c-1.747 11.424-13.17 33.865-44.414 33.865-26.811 0-48.379-21.972-48.379-49.252s21.568-49.252 48.379-49.252c14.917 0 25.466 6.585 31.178 11.893l21.099-20.225c-13.641-12.767-31.178-20.225-52.276-20.225-43.071 0-77.81 34.739-77.81 77.81 0 43.07 34.738 77.877 77.81 77.877 44.817 0 74.719-31.648 74.719-76.062 0-5.241-.471-9.206-1.344-12.767h-73.376zM527.053 171.006H505.08v21.973h-22.375v22.375h22.375v22.442h21.973v-22.442h22.442v-22.375h-22.442z"/><path d="M422.433 2.621c-108.584 0-197.346 88.359-197.346 197.346 0 108.584 88.358 197.346 197.346 197.346 108.584 0 197.346-88.359 197.346-197.346.067-108.988-88.292-197.346-197.346-197.346zm0 376.684c-98.908 0-179.741-80.43-179.741-179.741 0-98.908 80.43-179.742 179.741-179.742 98.908 0 179.741 80.43 179.741 179.742s-80.362 179.741-179.741 179.741z"/>
    </symbol>
    <symbol id="s-linkedin-fill" viewBox="-173.727 257.482 395.455 392.727">
      <title>Group 41</title><path d="M44 431.118c0-.454-.455 0 0 0z"/><path d="M24 257.482c-109.091 0-197.727 88.182-197.727 196.363 0 108.637 88.636 196.363 197.727 196.363s197.728-88.182 197.728-196.363c0-108.636-88.637-196.363-197.728-196.363zm-50.909 289.999h-45.455V411.118h45.455v136.363zm-22.727-154.999c-15.455 0-25.455-10.455-25.455-23.637s10-23.637 25.909-23.637c15.454 0 25 10 25.455 23.637 0 13.182-10.001 23.637-25.909 23.637zm187.272 154.999H92.182V474.3c0-18.182-6.363-30.909-23.182-30.909-12.727 0-20 8.637-23.182 16.364-1.364 2.728-1.364 6.817-1.364 10.909v76.363H-1s.455-123.637 0-136.363h45.455v19.545c5.909-9.091 16.818-22.728 40.909-22.728 30 0 52.272 19.546 52.272 61.364v78.636z"/>
    </symbol>
    <symbol id="s-linkedin-outline" viewBox="147 15.664 400 400">
      <title>Group 4</title><path d="M347 15.664c-110.455 0-200 89.546-200 200 0 110.455 89.545 200 200 200s200-89.545 200-200c0-110.454-89.545-200-200-200zm0 381.818c-100.455 0-181.818-81.363-181.818-181.818 0-100.454 81.364-181.817 181.818-181.817 100.455 0 181.818 81.363 181.818 181.817 0 100-81.363 181.818-181.818 181.818z"/><path d="M277.909 120.21c-13.182 0-21.818 9.091-21.818 21.363 0 11.818 8.182 21.364 21.364 21.364h.455c13.182 0 21.818-9.546 21.818-21.364-.91-12.272-9.091-21.363-21.819-21.363zM260.636 178.392h35.455v123.637h-35.455zM392.909 177.028c-20.455 0-33.182 12.272-35.455 20.454v-19.546h-40c.455 10.455 0 123.637 0 123.637h40v-66.818c0-3.636 0-7.272.909-10 2.727-7.272 8.636-15 19.091-15 13.636 0 20 11.364 20 28.183v64.091h40v-68.637c.455-38.182-19.545-56.364-44.545-56.364z"/>
    </symbol>
    <symbol id="s-twitter-fill" viewBox="-176 257.027 396.364 395.454">
      <title>Group 37</title><path d="M22.182 257.027C-87.364 257.027-176 345.664-176 454.755s88.636 197.727 198.182 197.727c109.546 0 198.182-88.636 198.182-197.727S131.728 257.027 22.182 257.027zm97.273 147.728v6.363c0 66.363-50.455 142.728-142.727 142.728-28.182 0-54.546-8.182-76.818-22.728 4.091.454 7.728.909 11.818.909 23.636 0 45-8.182 62.272-21.363-21.818-.455-40.454-15-46.818-35 3.182.454 6.364.908 9.545.908 4.545 0 9.091-.454 13.182-1.817-22.727-4.546-40.454-25-40.454-49.091v-.455a54.718 54.718 0 0 0 22.727 6.363c-13.636-9.091-22.273-24.09-22.273-41.817 0-9.091 2.273-17.728 6.818-25a140.894 140.894 0 0 0 103.636 52.272c-.908-3.636-1.363-7.272-1.363-11.363 0-27.728 22.273-50 50-50 14.546 0 27.273 5.908 36.818 15.908 11.364-2.272 22.273-6.363 31.818-12.272-3.636 11.818-11.818 21.364-22.272 27.728 10-1.363 20-4.091 28.636-7.728-6.364 9.546-14.545 18.637-24.545 25.455z"/>
    </symbol>
    <symbol id="s-twitter-outline" viewBox="205 -5.7 400 400">
      <title>Group 11</title><path d="M405-5.7c-110.455 0-200 89.546-200 200 0 110.455 89.545 200 200 200s200-89.545 200-200c0-110.454-89.545-200-200-200zm0 381.818c-100.455 0-181.818-81.363-181.818-181.818 0-100.454 81.364-181.817 181.818-181.817 100.455 0 181.818 81.363 181.818 181.817 0 100-81.363 181.818-181.818 181.818z"/><path d="M499.545 124.3c-7.727 4.546-15.908 8.182-25 10-7.272-8.182-17.271-13.182-28.636-13.182-21.818 0-39.091 18.637-39.091 41.364 0 3.182.455 6.363.909 9.545-32.728-1.818-61.364-18.182-80.909-43.182-3.182 5.909-5.455 13.182-5.455 20.909 0 14.546 6.818 26.818 17.272 34.546-6.363 0-12.272-2.273-17.727-5.001v.455c0 20 13.636 36.818 31.363 40.454-3.182.909-6.818 1.364-10.454 1.364-2.728 0-5-.455-7.273-.909 5 16.363 19.545 28.182 36.364 28.636-13.636 10.909-30.455 17.728-48.637 17.728-3.182 0-6.363 0-9.545-.455 17.272 11.818 37.727 18.637 60 18.637 72.272 0 111.363-62.727 111.363-117.728v-5.454c7.728-5.909 14.091-13.182 19.546-21.363-6.818 3.182-14.546 5.454-22.273 6.363 9.093-5 15.456-12.727 18.183-22.727z"/>
    </symbol>
    <symbol id="s-webo-fill" viewBox="-177 254.3 400 397.241">
      <title>Group 19</title><path d="M10.586 476.369c-2.299-.92-5.058 0-6.437 2.299-1.379 2.299-.46 5.058 1.839 5.977 2.299.92 5.518 0 6.896-2.299.921-2.759.461-5.058-2.298-5.977zM-4.126 482.346c-5.977-2.759-13.793 0-17.931 5.978-3.678 5.977-1.839 12.873 4.138 15.632s14.253 0 17.931-5.977c3.677-5.978 1.839-12.875-4.138-15.633z"/><path d="M1.391 435.449c-39.54 3.679-69.425 28.046-66.667 53.334 2.758 25.747 36.782 43.218 75.862 39.54 39.541-3.679 69.425-28.046 66.667-53.333-2.299-25.748-36.782-43.219-75.862-39.541zm34.483 60.69c-8.276 17.932-31.264 27.587-51.035 21.609-18.851-5.977-27.126-24.827-18.851-41.379s29.425-25.747 48.276-20.689c19.77 4.597 29.425 22.988 21.61 40.459z"/><path d="M23 254.3c-110.345 0-200 89.195-200 198.621 0 109.885 89.655 198.62 200 198.62s200-89.195 200-198.62C222.54 343.035 133.345 254.3 23 254.3zM10.126 542.576c-49.655 0-99.77-23.908-99.77-62.989 0-20.229 12.873-44.138 35.402-66.206 29.885-29.886 64.827-43.219 78.161-30.346 5.977 5.978 6.437 15.633 2.759 27.587-1.839 5.977 5.517 2.759 5.517 2.759 24.368-10.115 45.518-10.575 53.333.459 4.138 5.978 3.678 14.253 0 23.449-1.839 4.598.46 5.057 3.678 5.977 13.793 4.138 28.965 14.253 28.965 32.184.001 29.884-43.217 67.126-108.045 67.126zm89.656-124.138c1.379-5.057.459-10.574-3.219-14.712-3.678-4.139-9.195-5.518-14.252-4.598-4.138.919-8.276-1.84-9.196-5.978s1.839-8.275 5.977-9.195c10.575-2.299 21.609.92 29.425 9.195 7.816 8.276 9.655 19.771 6.437 29.885-1.379 4.139-5.977 6.438-10.115 5.058-4.138-1.379-6.437-5.517-5.057-9.655zm45.977 14.712c-1.379 4.598-6.896 7.356-11.494 5.978-4.598-1.38-7.356-6.438-5.978-11.495 4.598-14.712 1.839-31.264-9.195-43.678-11.034-12.414-27.586-17.012-42.758-13.793-5.058.92-9.655-2.299-11.035-6.896-.919-5.058 2.299-9.655 6.896-10.575 21.149-4.598 44.598 1.84 60.23 19.311 15.633 17.011 19.77 40.459 13.334 61.148z"/>
    </symbol>
    <symbol id="s-webo-outline" viewBox="217 0 400 400">
      <title>Group 14</title><path d="M417 0C306.545 0 217 89.546 217 200c0 110.455 89.545 200 200 200s200-89.545 200-200C617 89.546 527.455 0 417 0zm0 381.818c-100.455 0-181.818-81.363-181.818-181.818 0-100.454 81.364-181.817 181.818-181.817 100.455 0 181.818 81.363 181.818 181.817 0 100-81.363 181.818-181.818 181.818z"/><path d="M483.818 191.364c-3.182-.909-5.909-1.818-4.091-6.364 3.636-10 4.091-18.182 0-24.545-7.727-11.364-29.09-10.909-53.636-.455 0 0-7.728 3.637-5.909-2.728 3.637-12.272 3.182-22.727-2.727-28.636-13.182-13.636-48.637.455-78.637 31.364-22.727 23.183-35.909 47.728-35.909 68.637 0 40.454 50.909 65 100.909 65 65.455 0 108.637-38.637 108.637-69.546.454-17.727-15-28.636-28.637-32.727zm-79.545 88.182c-39.546 4.091-74.091-14.091-76.819-40.909-2.727-26.818 27.728-51.364 67.273-55.455 39.546-4.091 74.091 14.091 76.817 40.909 2.729 26.818-27.726 51.364-67.271 55.455zM466.545 97.273c-5 .909-8.182 5.909-7.272 10.909s5.909 8.182 10.909 7.272c15.455-3.183 31.818 1.363 43.182 14.091s14.092 30 9.546 45c-1.364 5 .909 10 5.909 11.818s10-.909 11.363-5.909C547 159.091 542.455 135 527 117.273c-15.455-17.727-39.091-24.545-60.455-20z"/><path d="M499.273 175.455c4.09 1.363 8.636-.909 10-5 3.182-10.455 1.363-22.273-6.364-30.909-7.728-8.637-19.091-11.818-29.546-9.546-4.09.909-6.817 5-5.908 9.546.908 4.545 5 7.272 9.545 6.363 5-.909 10.455.455 14.546 4.546 3.636 4.091 4.546 10 3.182 15-1.819 4.091.454 8.636 4.545 10zM408.363 203.637c-19.091-5-40.454 4.546-48.636 21.363-8.182 17.273-.455 36.364 18.636 42.728 20 6.363 43.181-3.637 51.364-22.272 8.182-17.728-1.818-36.365-21.364-41.819zm-14.545 44.545c-3.637 6.364-12.273 9.091-18.182 5.909-5.909-2.727-7.727-10-4.091-16.363 3.636-5.909 11.818-8.637 17.727-6.363 6.364 3.181 8.183 10.453 4.546 16.817zm12.727-16.818c-1.363 2.272-4.545 3.636-6.817 2.727-2.273-.908-3.182-3.636-1.818-5.908 1.364-2.273 4.546-3.637 6.818-2.728s3.181 3.636 1.817 5.909z"/>
    </symbol>
    <symbol id="s-wechat-fill" viewBox="133.091 117.3 400 400">
      <title>Group 20</title><path d="M271.728 267.755c-5.455 0-10 4.091-10 9.091 0 5.454 4.091 9.545 9.545 10 5.455 0 10-4.091 10-9.091 0-5.455-4.545-10-9.545-10zM350.364 329.118a8.149 8.149 0 0 0-8.182 8.182c0 4.091 3.636 7.728 8.182 7.728s7.727-3.182 8.182-7.728a8.15 8.15 0 0 0-8.182-8.182zM332.637 286.846c5.454 0 9.545-4.091 9.545-9.546 0-5.454-4.545-9.545-10-9.545-5.454 0-9.545 4.545-9.545 9.545.454 5.455 4.545 9.546 10 9.546z"/><path d="M333.091 117.3c-110.454 0-200 89.546-200 200 0 110.455 89.546 200 200 200s200-89.545 200-200c0-110.454-89.546-200-200-200zm-52.727 244.091c-2.727 0-5.909 0-8.182 1.364-7.273 4.091-14.545 9.091-23.182 14.091 1.364-6.818 2.728-13.182 4.546-19.091 1.363-4.546.909-6.818-3.182-9.546-25.909-18.182-36.364-45.454-28.636-73.182 7.727-25.909 25.909-41.363 50.909-49.546 34.091-11.363 72.727 0 93.182 27.273 7.728 10 12.273 20.909 13.182 33.636-21.363.909-40 7.728-55 22.273-15.454 14.999-22.272 33.182-20.454 55.454-7.729-.908-15.456-2.271-23.183-2.726zm150.909 35c-6.818 5.909-9.092 10.909-4.546 18.637.909 1.363.909 3.182 1.363 5-6.818-3.182-13.182-7.728-19.546-8.182-6.817-.909-13.636 3.182-20.454 3.637-20.909 2.272-40-3.637-55.455-18.183-29.545-27.272-25.455-69.091 8.636-91.817 30.455-20 75-13.183 96.364 14.545 18.638 24.09 16.365 56.363-6.362 76.363z"/><path d="M400.364 329.118c-4.091 0-7.728 3.182-7.728 7.728 0 4.545 3.182 8.182 7.728 8.182s7.727-3.182 7.727-7.728c0-4.545-3.182-8.182-7.727-8.182z"/>
    </symbol>
    <symbol id="s-wechat-outline" viewBox="205 0 400 400">
      <title>Group 17</title><path d="M405 0C294.545 0 205 89.546 205 200c0 110.455 89.545 200 200 200s200-89.545 200-200C605 89.546 515.455 0 405 0zm0 381.818c-100.455 0-181.818-81.363-181.818-181.818 0-100.454 81.364-181.817 181.818-181.817 100.455 0 181.818 81.363 181.818 181.817 0 100-81.363 181.818-181.818 181.818z"/><path d="M397.272 188.637c15-14.546 33.637-21.364 55-22.272-1.363-13.182-5.909-24.091-13.182-33.637-20.909-27.272-59.091-38.637-93.182-27.272-25 8.182-43.637 24.091-50.909 49.545-8.182 28.183 2.728 55 28.636 73.183 4.091 2.727 4.545 5.454 3.182 9.545-1.818 5.909-2.728 12.272-4.546 19.091 8.637-5.454 15.455-10 23.182-14.091 2.273-1.363 5.455-1.363 8.182-1.363 7.728.454 15.455 1.818 23.636 2.727-2.271-22.729 4.547-40.91 20.001-55.456zM405 147.728c5.455 0 9.545 4.091 10 9.545 0 5.455-4.091 9.546-9.545 9.546-5.455 0-10-4.091-10-9.546 0-5.001 4.545-9.545 9.545-9.545zm-61.364 19.09c-5.455 0-9.545-4.546-9.545-10s4.545-9.546 10-9.091c5.455 0 9.546 4.545 9.546 10 0 5.001-4.546 9.091-10.001 9.091z"/><path d="M413.637 185.455C379.545 207.728 375 249.546 405 277.273c15.455 14.545 34.545 20.454 55.455 18.182 6.818-.909 13.636-4.546 20.454-3.637s12.728 5 19.546 8.182c-.455-1.817-.455-3.636-1.364-5-4.091-7.728-1.817-12.727 4.546-18.636 22.727-20.455 25-52.273 6.363-76.364-21.363-27.727-65.909-34.091-96.363-14.545zM423.182 225c-4.091 0-7.727-3.636-8.182-7.728a8.149 8.149 0 0 1 8.182-8.182 8.148 8.148 0 0 1 8.182 8.182c-.455 4.546-4.092 7.728-8.182 7.728zm49.546 0c-4.546 0-8.183-3.636-7.728-8.182 0-4.091 3.637-7.728 7.728-7.728 4.545 0 8.182 3.637 7.728 8.182-.001 4.546-3.184 7.728-7.728 7.728z"/>
    </symbol>
    <symbol id="s-youku-fill" viewBox="237.455 -35.768 399.091 399.091">
      <title>youku-logo copy</title><path d="M373.364 131.96c-8.636 0-15.909 8.182-15.909 18.637 0 10.454 7.273 18.636 15.909 18.636s15.909-8.182 15.909-18.636c0-10-7.273-18.637-15.909-18.637z"/><path d="M437-35.768c-110 0-199.545 89.546-199.545 199.546S327 363.323 437 363.323c110 0 199.546-89.545 199.546-199.545 0-110.455-89.091-199.546-199.546-199.546zM288.819 218.323c-9.091-3.636-6.364-11.817-5-14.545l10-21.818-25.455-58.637c-.455-1.817-3.636-10.908 5.455-14.091 8.182-2.727 12.727.909 15.455 6.364l16.364 40.454 17.272-40.454c2.272-5 5.455-10.455 15.455-6.818 10.455 3.636 5.455 14.091 5.455 14.091l-39.091 87.272c-2.729 6.364-6.819 11.364-15.91 8.182zm84.545-33.181c-21.818 0-35.455-15.454-35.455-35 0-19.091 15.909-35 35.455-35s35.454 15.455 35.454 35c0 19.546-11.818 35-35.454 35zm101.365-25.454c-.91 16.363-13.637 26.363-32.273 26.363-32.728.454-31.818-20.454-32.273-24.546v-32.272c.455-6.363 3.637-10.454 10-10.909 5.91.455 9.092 3.637 9.092 10v32.728c0 2.728 1.363 10.909 13.182 10.909 7.727 0 12.273-5 12.727-11.818v-32.272c.455-6.818 3.637-10 9.546-10.454 6.364 0 9.546 3.182 10.001 10v32.271zm65.453 21.818c-3.635 3.182-10.453 3.636-14.545 0-1.363-1.364-28.182-23.637-28.182-23.637v18.182c-.455 5.455-3.637 8.637-10.455 8.637-6.363 0-10-2.728-10-8.637v-49.546c.455-5.908 3.182-9.545 10-9.545s10 3.637 10 9.545v17.273l25-23.637c2.729-2.272 9.546-5.455 15 0 7.273 7.272-.908 15-.908 15l-17.273 15 19.092 16.363c5.453 4.093 5.907 11.365 2.271 15.002zm34.547 4.091c-20.91-.455-31.364-9.092-32.273-25v-32.273c.455-6.363 3.182-10.454 10-10.454 5.909 0 9.091 3.636 9.545 10.454v32.273c.455 6.818 5.455 11.363 12.729 11.363 7.271 0 12.271-4.545 12.727-11.363v-32.273c.455-6.363 3.637-10 9.545-10.454 5.91 0 9.546 3.636 10 10.454v32.273c-.91 15.908-11.365 24.545-32.273 25z"/>
    </symbol>
    <symbol id="s-youku-outline" viewBox="200 7.3 400 400">
      <title>Group 22</title><path d="M400 7.3c-110.455 0-200 89.546-200 200 0 110.455 89.545 200 200 200s200-89.545 200-200c0-110.454-89.545-200-200-200zm0 381.818c-100.455 0-181.818-81.363-181.818-181.818 0-100.454 81.364-181.817 181.818-181.817 100.455 0 181.818 81.363 181.818 181.817 0 100-81.363 181.818-181.818 181.818z"/><path d="M314.545 170.027c-9.091-3.182-11.818 1.363-13.636 5.909l-15 35.909-14.545-35.909c-2.273-5-6.364-8.182-13.636-5.909-8.182 2.728-5.455 10.909-5 12.272l22.727 51.818-8.636 19.546c-1.364 2.727-3.182 10 4.545 12.727 7.727 3.182 11.364-1.363 14.091-6.818L320 182.3c-.455 0 3.637-9.091-5.455-12.273zM345.455 175.481c-17.273 0-31.364 13.637-31.364 30.909 0 17.273 12.273 30.909 31.364 30.909 20.909 0 31.364-13.636 31.364-30.909-.001-17.272-13.637-30.909-31.364-30.909zm0 47.728c-7.727 0-14.091-7.272-14.091-16.363s6.364-16.364 14.091-16.364 14.091 7.273 14.091 16.364-6.364 16.363-14.091 16.363zM426.363 176.846c-5.454.454-8.182 3.636-8.636 9.545v28.637c-.455 5.909-4.546 10.454-11.364 10.454-10 .455-11.363-6.817-11.363-9.545V187.3c0-5.909-2.728-8.636-8.182-9.091-5.455.455-8.637 3.637-9.091 9.546v28.636c0 3.637-.455 22.273 28.182 21.818 16.364 0 27.728-9.091 28.182-23.637v-28.636c.909-5.909-1.818-8.636-7.728-9.09zM474.545 206.846l15-13.182s7.728-7.273.91-13.637c-5-4.545-10.91-1.818-13.182 0L455 200.937v-15c0-5-3.182-8.182-9.091-8.182s-8.636 3.182-9.091 8.182v43.637c.455 5 3.182 7.728 9.091 7.728s8.636-2.728 9.091-7.728V213.21s23.182 20 24.545 20.909c3.637 3.183 10 2.728 13.183 0 3.182-3.182 2.272-9.545-1.364-12.727l-16.819-14.546z"/><path d="M543.182 177.3c-5.454 0-8.182 3.183-8.637 9.091v28.637c-.454 5.909-5 10-11.363 10s-10.908-4.091-11.363-10v-28.637c-.455-5.908-2.728-9.091-8.182-9.091-5.909 0-8.637 3.183-8.637 9.091v28.637c.455 14.546 10 21.818 28.182 22.272 18.182-.454 27.728-7.728 28.637-22.272v-28.637c-.456-5.454-3.637-8.636-8.637-9.091z"/>
    </symbol>
    <symbol id="s-youtube-fill" viewBox="141.636 111.755 396.364 395.454">
      <title>Group 42</title><path d="M316.182 349.482l67.727-44.545-67.727-44.546z"/><path d="M339.818 111.755c-109.546 0-198.182 88.636-198.182 197.727S230.272 507.21 339.818 507.21C449.363 507.209 538 418.572 538 309.481s-88.637-197.726-198.182-197.726zm118.637 245.454c0 19.546-15.91 35.455-35.455 35.455H257.091c-19.545 0-35.454-15.909-35.454-35.455v-95c0-19.545 15.909-35.454 35.454-35.454H423c19.545 0 35.455 15.909 35.455 35.454v95z"/>
    </symbol>
    <symbol id="s-youtube-outline" viewBox="207 0 400 400">
      <title>Group 23</title><path d="M407 0C296.545 0 207 89.546 207 200c0 110.455 89.545 200 200 200s200-89.545 200-200C607 89.546 517.455 0 407 0zm0 381.818c-100.455 0-181.818-81.363-181.818-181.818 0-100.454 81.364-181.817 181.818-181.817 100.455 0 181.818 81.363 181.818 181.817 0 100.455-81.363 181.818-181.818 181.818z"/><path d="M466.545 136.364h-119.09s-31.364 0-31.364 31.363v65s0 31.363 31.364 31.363h119.09s31.364 0 31.364-31.363v-65c0 .001 0-31.363-31.364-31.363zM382.909 235v-69.545l59.546 35L382.909 235z"/>
    </symbol>
    <symbol id="talk" viewBox="0 0 53.533 41.361">
      <g fill-rule="evenodd" clip-rule="evenodd"><path d="M53.533 24.291c0-5.486-5.312-10.104-12.503-11.478C39.883 5.485 31.196 0 20.588 0 9.236 0 0 6.47 0 14.422c0 4.438 2.949 8.646 7.927 11.366-.232 1.022-.546 2.328-1.021 3.649-.54 1.504-1.818 3.112-1.831 3.128l-1.391 1.739 2.208-.284c.188-.024 4.67-.614 8.014-2.243 1.257-.612 3.312-2.083 4.314-3.056.733.05 1.803.12 2.367.12.13 0 .258-.005.388-.007 2.544 4.315 8.591 7.36 15.635 7.36.4 0 .798-.011 1.191-.03a18.156 18.156 0 0 0 2.059 1.934c2.811 2.267 8.352 3.01 8.586 3.04l1.713.223-.799-1.531c-.01-.02-1.008-1.938-1.445-3.337a48.094 48.094 0 0 1-.803-2.868c4.034-2.246 6.421-5.694 6.421-9.334zm-33.845 0c0 .944.174 1.858.471 2.739-.616-.023-1.484-.082-2.004-.117l-.684-.047-.293.344c-.59.688-2.788 2.33-4.06 2.948-1.729.844-3.86 1.394-5.4 1.714.328-.557.654-1.19.882-1.826.567-1.579.911-3.099 1.161-4.208l.23-1.012-.629-.317C4.627 22.119 1.8 18.349 1.8 14.422c0-6.96 8.428-12.621 18.787-12.621 9.28 0 17.184 4.651 18.558 10.735a23.926 23.926 0 0 0-2.535-.148c-9.331 0-16.922 5.34-16.922 11.903zm25.983 8.062l-.629.317.156.687a49.04 49.04 0 0 0 .998 3.674c.205.654.508 1.386.792 2.021-1.754-.37-4.452-1.106-5.998-2.353a16.106 16.106 0 0 1-2.119-2.042l-.293-.341-.448.028c-.5.032-1.007.051-1.52.051-8.339 0-15.122-4.532-15.122-10.104 0-5.57 6.783-10.103 15.122-10.103s15.122 4.532 15.122 10.103c0 3.178-2.209 6.116-6.061 8.062z"/><circle cx="31.253" cy="24.508" r="1.104"/><circle cx="36.731" cy="24.508" r="1.104"/><circle cx="42.21" cy="24.508" r="1.104"/></g>
    </symbol>
    <symbol id="to-top-copy" viewBox="0 0 31.25 31.25">
      <g fill="#008787"><path d="M15.624 14.51l5.768 5.767.961-.961-6.729-6.728-6.727 6.728.961.961z"/><path d="M0 0v31.25h31.25V0H0zm29.75 29.75H1.5V1.5h28.25v28.25z"/></g>
    </symbol>
    <symbol id="to-top" viewBox="0 0 31.25 31.25">
      <path fill="#008787" d="M21.392 20.277l-5.768-5.767-5.766 5.767-.961-.961 6.727-6.728 6.729 6.728z"/>
    </symbol>
    <symbol id="x" viewBox="0 0 31 31">
      <path fill-rule="evenodd" clip-rule="evenodd" d="M31 2.735L28.265 0 15.5 12.765 2.735 0 0 2.735 12.765 15.5 0 28.265 2.735 31 15.5 18.235 28.265 31 31 28.265 18.235 15.5z"/>
    </symbol></svg>